<svg xmlns="http://www.w3.org/2000/svg" xmlns:xlink="http://www.w3.org/1999/xlink" width="36" zoomAndPan="magnify" viewBox="0 0 26.88 51.749998" height="69" preserveAspectRatio="xMidYMid meet" version="1.0"><defs><clipPath id="c4022c4127"><path d="M 0.0390625 0.0234375 L 26.097656 0.0234375 L 26.097656 50.75 L 0.0390625 50.75 Z M 0.0390625 0.0234375 " clip-rule="nonzero"/></clipPath><clipPath id="8dfe2214d5"><path d="M 17 17 L 26.128906 17 L 26.128906 26 L 17 26 Z M 17 17 " clip-rule="nonzero"/></clipPath><clipPath id="775be6f508"><path d="M 0.00390625 14 L 26.128906 14 L 26.128906 22 L 0.00390625 22 Z M 0.00390625 14 " clip-rule="nonzero"/></clipPath><clipPath id="0e735018fb"><path d="M 0.00390625 18 L 18 18 L 18 26 L 0.00390625 26 Z M 0.00390625 18 " clip-rule="nonzero"/></clipPath><clipPath id="8cbced8d8b"><path d="M 1.132812 34.203125 L 18.058594 34.203125 L 18.058594 50.75 L 1.132812 50.75 Z M 1.132812 34.203125 " clip-rule="nonzero"/></clipPath><clipPath id="5015c16d96"><path d="M 17.949219 36.621094 L 26.097656 36.621094 L 26.097656 50.75 L 17.949219 50.75 Z M 17.949219 36.621094 " clip-rule="nonzero"/></clipPath><clipPath id="9887c503a6"><path d="M 0.00390625 22 L 18 22 L 18 41 L 0.00390625 41 Z M 0.00390625 22 " clip-rule="nonzero"/></clipPath><clipPath id="290ca05cc3"><path d="M 17.511719 22.441406 L 26.097656 22.441406 L 26.097656 40.6875 L 17.511719 40.6875 Z M 17.511719 22.441406 " clip-rule="nonzero"/></clipPath><clipPath id="65a0095405"><path d="M 0.0390625 17.605469 L 26.027344 17.605469 L 26.027344 50.75 L 0.0390625 50.75 Z M 0.0390625 17.605469 " clip-rule="nonzero"/></clipPath></defs><g clip-path="url(#c4022c4127)"><path fill="#f5ce31" d="M 24.527344 29.53125 C 24.539062 29.527344 24.546875 29.523438 24.554688 29.515625 C 24.5625 29.507812 24.570312 29.496094 24.574219 29.488281 C 24.566406 29.507812 24.546875 29.523438 24.527344 29.53125 Z M 0.261719 22.855469 C 0.273438 22.859375 0.285156 22.863281 0.296875 22.867188 C 0.285156 22.863281 0.273438 22.859375 0.261719 22.855469 Z M 26.09375 39.089844 C 26.089844 38.84375 26.089844 38.601562 26.089844 38.355469 C 26.070312 33.429688 26.023438 28.503906 26.007812 23.578125 C 26.007812 23.234375 26.007812 22.890625 26.007812 22.550781 C 26.003906 20.917969 26.003906 19.289062 26.011719 17.660156 C 26.015625 17.65625 26.015625 17.65625 26.019531 17.65625 L 26.011719 17.632812 C 26.011719 17.59375 25.992188 17.550781 25.945312 17.53125 C 25.925781 17.519531 25.898438 17.511719 25.871094 17.515625 C 24.984375 17.375 24.101562 17.226562 23.222656 17.078125 C 22.757812 17 22.296875 16.921875 21.835938 16.839844 C 21.761719 16.828125 21.6875 16.8125 21.613281 16.800781 C 21.625 16.746094 21.632812 16.691406 21.644531 16.636719 C 21.703125 16.300781 21.761719 15.964844 21.820312 15.628906 C 21.878906 15.300781 21.933594 14.972656 21.992188 14.644531 C 22.050781 14.308594 22.113281 13.972656 22.171875 13.636719 C 22.226562 13.320312 22.28125 13.003906 22.335938 12.6875 C 22.402344 12.328125 22.464844 11.972656 22.527344 11.613281 C 22.605469 11.167969 22.683594 10.722656 22.761719 10.273438 C 22.832031 9.882812 22.898438 9.492188 22.96875 9.097656 C 23.035156 8.71875 23.101562 8.335938 23.167969 7.957031 C 23.238281 7.5625 23.308594 7.167969 23.375 6.773438 C 23.445312 6.382812 23.515625 5.988281 23.582031 5.597656 C 23.648438 5.21875 23.714844 4.839844 23.78125 4.464844 C 23.851562 4.078125 23.917969 3.691406 23.984375 3.304688 C 24.042969 2.972656 24.105469 2.640625 24.160156 2.308594 C 24.261719 1.730469 24.363281 1.152344 24.464844 0.574219 C 24.46875 0.570312 24.464844 0.570312 24.46875 0.566406 C 24.476562 0.535156 24.472656 0.503906 24.453125 0.46875 C 24.285156 0.167969 24.046875 0.0546875 23.707031 0.0234375 C 23.433594 0 23.113281 0.128906 22.957031 0.371094 C 22.933594 0.386719 22.917969 0.410156 22.914062 0.445312 C 22.894531 0.558594 22.875 0.671875 22.855469 0.789062 C 22.796875 1.140625 22.738281 1.492188 22.675781 1.847656 C 22.628906 2.125 22.582031 2.402344 22.535156 2.679688 C 22.472656 3.0625 22.40625 3.441406 22.34375 3.820312 C 22.28125 4.175781 22.222656 4.53125 22.160156 4.886719 C 22.09375 5.285156 22.027344 5.679688 21.960938 6.078125 C 21.894531 6.464844 21.828125 6.851562 21.761719 7.242188 C 21.695312 7.636719 21.628906 8.03125 21.5625 8.425781 C 21.472656 8.960938 21.382812 9.496094 21.292969 10.03125 C 21.230469 10.394531 21.167969 10.753906 21.105469 11.117188 C 21.042969 11.503906 20.976562 11.886719 20.914062 12.269531 C 20.855469 12.609375 20.796875 12.949219 20.738281 13.289062 C 20.691406 13.585938 20.640625 13.886719 20.589844 14.183594 C 20.527344 14.535156 20.46875 14.890625 20.410156 15.242188 C 20.351562 15.585938 20.292969 15.925781 20.234375 16.265625 C 20.21875 16.363281 20.203125 16.457031 20.1875 16.550781 C 19.863281 16.496094 19.539062 16.4375 19.214844 16.378906 C 16.425781 15.882812 13.636719 15.382812 10.835938 14.9375 C 10.8125 14.925781 10.785156 14.925781 10.75 14.933594 C 7.210938 16.007812 3.679688 17.117188 0.140625 18.191406 C 0.109375 18.199219 0.0859375 18.214844 0.0703125 18.234375 C 0.0664062 18.234375 0.0664062 18.234375 0.0625 18.234375 L 0.0585938 18.257812 C 0.0507812 18.273438 0.046875 18.289062 0.046875 18.300781 C 0.0429688 18.316406 0.0390625 18.328125 0.0390625 18.347656 C 0.0898438 19.84375 0.144531 21.34375 0.203125 22.84375 C 0.421875 28.394531 0.71875 33.941406 1.203125 39.476562 C 1.21875 39.628906 1.230469 39.785156 1.242188 39.9375 C 1.425781 41.957031 1.632812 43.96875 1.878906 45.980469 C 1.878906 45.984375 1.878906 45.988281 1.878906 45.992188 C 1.878906 46.046875 1.910156 46.097656 1.976562 46.113281 C 7.402344 47.320312 12.757812 48.839844 17.996094 50.710938 C 18.015625 50.71875 18.035156 50.722656 18.050781 50.71875 C 18.054688 50.730469 18.054688 50.738281 18.054688 50.75 L 18.101562 50.746094 C 18.101562 50.730469 18.101562 50.714844 18.101562 50.703125 C 18.105469 50.699219 18.109375 50.695312 18.113281 50.691406 C 21.019531 49.332031 23.757812 47.605469 26.050781 45.339844 C 26.050781 45.335938 26.054688 45.332031 26.054688 45.332031 C 26.058594 45.328125 26.0625 45.324219 26.066406 45.320312 C 26.070312 45.3125 26.070312 45.308594 26.074219 45.304688 C 26.074219 45.300781 26.078125 45.300781 26.078125 45.296875 C 26.085938 45.28125 26.089844 45.261719 26.089844 45.246094 C 26.089844 45.246094 26.089844 45.242188 26.089844 45.242188 C 26.089844 45.242188 26.089844 45.238281 26.089844 45.238281 C 26.097656 43.1875 26.097656 41.140625 26.09375 39.089844 " fill-opacity="1" fill-rule="nonzero"/></g><path fill="#792619" d="M 5.980469 45.125 C 5.980469 45.132812 5.976562 45.140625 5.972656 45.148438 C 5.964844 45.160156 5.960938 45.167969 5.953125 45.179688 C 5.957031 45.179688 5.957031 45.179688 5.960938 45.183594 C 5.949219 45.207031 5.933594 45.230469 5.921875 45.253906 C 5.921875 45.285156 5.964844 45.285156 6.046875 45.257812 C 6.246094 45.257812 6.226562 45.214844 5.980469 45.125 " fill-opacity="1" fill-rule="nonzero"/><g clip-path="url(#8dfe2214d5)"><path fill="#792619" d="M 24.992188 18.195312 C 24.648438 18.367188 24.300781 18.523438 23.949219 18.683594 C 23.597656 18.835938 23.242188 18.980469 22.882812 19.109375 C 22.519531 19.238281 22.160156 19.371094 21.800781 19.503906 L 19.640625 20.308594 C 18.921875 20.5625 18.203125 20.820312 17.476562 21.054688 C 17.484375 22.652344 17.507812 24.25 17.539062 25.847656 C 17.546875 25.847656 17.550781 25.847656 17.558594 25.847656 C 17.582031 25.886719 17.625 25.914062 17.683594 25.894531 C 17.6875 25.894531 17.695312 25.894531 17.699219 25.890625 C 20.378906 24.808594 23.054688 23.726562 25.734375 22.644531 L 26.007812 22.550781 C 26.003906 20.917969 26.003906 19.289062 26.011719 17.660156 C 25.679688 17.855469 25.335938 18.027344 24.992188 18.195312 " fill-opacity="1" fill-rule="nonzero"/></g><g clip-path="url(#775be6f508)"><path fill="#792619" d="M 3.367188 18.070312 C 3.863281 17.851562 4.363281 17.644531 4.863281 17.433594 L 5.613281 17.121094 L 6.363281 16.816406 C 6.613281 16.714844 6.863281 16.609375 7.113281 16.5 C 7.359375 16.394531 7.613281 16.304688 7.871094 16.222656 C 8.132812 16.144531 8.394531 16.074219 8.65625 16.011719 C 8.921875 15.949219 9.191406 15.894531 9.464844 15.863281 L 9.480469 15.90625 C 9.25 16.058594 9.007812 16.191406 8.765625 16.3125 C 8.519531 16.433594 8.273438 16.546875 8.027344 16.652344 C 7.777344 16.753906 7.523438 16.847656 7.261719 16.925781 C 7.003906 17.003906 6.742188 17.078125 6.484375 17.160156 L 5.714844 17.40625 L 4.9375 17.648438 C 4.421875 17.800781 3.902344 17.964844 3.382812 18.113281 Z M 10.109375 16.109375 C 10.3125 16.042969 10.519531 15.980469 10.730469 15.929688 C 10.9375 15.871094 11.152344 15.824219 11.375 15.796875 L 11.390625 15.835938 C 11.222656 15.984375 11.039062 16.109375 10.851562 16.222656 C 10.667969 16.335938 10.472656 16.441406 10.277344 16.535156 C 10.082031 16.625 9.878906 16.703125 9.671875 16.769531 C 9.464844 16.832031 9.257812 16.890625 9.050781 16.953125 C 8.84375 17.015625 8.636719 17.078125 8.425781 17.136719 C 8.21875 17.195312 8.007812 17.25 7.800781 17.304688 C 7.378906 17.40625 6.960938 17.503906 6.535156 17.582031 L 6.523438 17.539062 C 6.929688 17.390625 7.332031 17.246094 7.730469 17.085938 C 7.933594 17.011719 8.132812 16.933594 8.332031 16.851562 C 8.53125 16.773438 8.730469 16.691406 8.929688 16.609375 C 9.125 16.527344 9.320312 16.4375 9.515625 16.347656 C 9.710938 16.257812 9.90625 16.179688 10.109375 16.109375 Z M 8.785156 19.46875 C 9.511719 19.582031 10.238281 19.691406 10.964844 19.796875 C 11.6875 19.90625 12.414062 20.027344 13.132812 20.15625 C 13.855469 20.292969 14.578125 20.425781 15.296875 20.566406 C 15.65625 20.636719 16.015625 20.710938 16.378906 20.785156 C 16.734375 20.859375 17.09375 20.929688 17.449219 21.015625 C 18.15625 20.710938 18.855469 20.410156 19.554688 20.097656 L 21.664062 19.167969 C 22.015625 19.011719 22.363281 18.855469 22.714844 18.691406 C 23.066406 18.535156 23.421875 18.390625 23.78125 18.257812 L 24.328125 18.070312 C 24.511719 18.011719 24.691406 17.953125 24.878906 17.898438 C 25.246094 17.789062 25.621094 17.6875 26.003906 17.613281 L 26.011719 17.632812 C 26.011719 17.59375 25.992188 17.550781 25.945312 17.53125 C 25.925781 17.519531 25.898438 17.511719 25.871094 17.515625 C 24.984375 17.375 24.101562 17.226562 23.222656 17.078125 C 22.757812 17 22.296875 16.921875 21.835938 16.839844 C 21.761719 16.828125 21.6875 16.8125 21.613281 16.800781 C 21.597656 16.890625 21.582031 16.980469 21.566406 17.070312 C 21.554688 17.132812 21.542969 17.199219 21.53125 17.265625 C 21.535156 17.265625 21.539062 17.265625 21.542969 17.269531 C 21.90625 17.429688 22.304688 17.722656 22.132812 18.121094 C 22.113281 18.167969 22.089844 18.214844 22.050781 18.265625 C 21.921875 18.445312 21.714844 18.558594 21.480469 18.628906 C 21.0625 18.75 20.558594 18.730469 20.214844 18.679688 C 19.757812 18.609375 19.074219 18.410156 19.089844 17.816406 C 19.101562 17.316406 19.566406 17.191406 19.972656 17.164062 C 20.011719 17.160156 20.046875 17.160156 20.085938 17.160156 C 20.105469 17.046875 20.121094 16.933594 20.140625 16.820312 C 20.15625 16.730469 20.171875 16.640625 20.1875 16.550781 C 19.863281 16.496094 19.539062 16.4375 19.214844 16.378906 C 16.425781 15.882812 13.636719 15.382812 10.835938 14.9375 C 10.8125 14.925781 10.785156 14.925781 10.75 14.933594 C 7.210938 16.007812 3.679688 17.117188 0.140625 18.191406 C 0.109375 18.199219 0.0859375 18.214844 0.0703125 18.234375 C 1.527344 18.394531 2.980469 18.597656 4.429688 18.800781 C 5.882812 19.015625 7.335938 19.242188 8.785156 19.46875 " fill-opacity="1" fill-rule="nonzero"/></g><g clip-path="url(#0e735018fb)"><path fill="#792619" d="M 2.457031 21.539062 C 2.578125 21.308594 2.75 21.105469 2.953125 20.945312 C 3.15625 20.78125 3.390625 20.664062 3.640625 20.597656 C 3.890625 20.535156 4.15625 20.527344 4.402344 20.605469 C 4.171875 20.714844 3.964844 20.816406 3.773438 20.929688 C 3.582031 21.042969 3.402344 21.167969 3.230469 21.300781 C 3.0625 21.4375 2.902344 21.582031 2.746094 21.746094 C 2.589844 21.90625 2.445312 22.082031 2.285156 22.285156 C 2.265625 22.027344 2.339844 21.769531 2.457031 21.539062 Z M 2.117188 20.421875 C 2.199219 20.289062 2.3125 20.175781 2.441406 20.085938 C 2.570312 20 2.71875 19.9375 2.871094 19.90625 C 3.027344 19.878906 3.1875 19.882812 3.34375 19.949219 C 3.222656 20.070312 3.113281 20.15625 3.007812 20.238281 C 2.902344 20.316406 2.796875 20.390625 2.695312 20.464844 C 2.589844 20.535156 2.484375 20.601562 2.367188 20.671875 C 2.253906 20.742188 2.132812 20.8125 1.980469 20.882812 C 1.976562 20.710938 2.035156 20.558594 2.117188 20.421875 Z M 12.167969 22.027344 C 12.363281 22.160156 12.539062 22.328125 12.675781 22.523438 C 12.816406 22.714844 12.921875 22.933594 12.988281 23.164062 C 13.050781 23.394531 13.074219 23.636719 13.023438 23.875 C 12.890625 23.675781 12.777344 23.488281 12.664062 23.308594 C 12.546875 23.128906 12.433594 22.957031 12.3125 22.789062 C 12.191406 22.621094 12.066406 22.457031 11.929688 22.292969 C 11.796875 22.125 11.65625 21.960938 11.507812 21.769531 C 11.75 21.796875 11.96875 21.894531 12.167969 22.027344 Z M 13.359375 22.207031 C 13.476562 22.316406 13.574219 22.445312 13.640625 22.589844 C 13.710938 22.734375 13.75 22.890625 13.757812 23.050781 C 13.761719 23.210938 13.734375 23.375 13.648438 23.527344 C 13.546875 23.386719 13.480469 23.261719 13.414062 23.140625 C 13.347656 23.019531 13.289062 22.902344 13.234375 22.785156 C 13.179688 22.667969 13.125 22.546875 13.074219 22.421875 C 13.023438 22.292969 12.96875 22.160156 12.925781 21.992188 C 13.097656 22.019531 13.238281 22.105469 13.359375 22.207031 Z M 2.71875 23.027344 C 3.25 22.175781 4.019531 21.453125 4.914062 21.027344 C 6.175781 20.421875 7.546875 20.636719 8.78125 21.199219 C 10.429688 21.972656 11.8125 23.242188 12.707031 24.804688 C 12.765625 24.902344 12.820312 25.003906 12.871094 25.105469 C 14.371094 25.359375 15.875 25.597656 17.378906 25.824219 C 17.386719 24.234375 17.402344 22.648438 17.429688 21.058594 C 17.070312 21.042969 16.707031 21.015625 16.347656 20.988281 C 15.980469 20.957031 15.617188 20.921875 15.25 20.882812 C 14.882812 20.847656 14.519531 20.800781 14.15625 20.753906 L 13.0625 20.605469 C 12.335938 20.5 11.609375 20.378906 10.890625 20.242188 L 8.726562 19.828125 C 7.28125 19.554688 5.839844 19.285156 4.394531 19.027344 C 2.953125 18.757812 1.503906 18.511719 0.0546875 18.28125 L 0.0585938 18.257812 C 0.0507812 18.273438 0.046875 18.289062 0.046875 18.300781 C 0.0429688 18.316406 0.0390625 18.328125 0.0390625 18.347656 C 0.0898438 19.84375 0.144531 21.34375 0.203125 22.84375 L 0.261719 22.855469 C 0.273438 22.859375 0.285156 22.863281 0.296875 22.867188 C 0.359375 22.878906 0.417969 22.886719 0.476562 22.898438 C 1.175781 23.023438 1.875 23.148438 2.574219 23.277344 C 2.617188 23.191406 2.667969 23.109375 2.71875 23.027344 " fill-opacity="1" fill-rule="nonzero"/></g><path fill="#792619" d="M 6.140625 27.636719 C 6.148438 27.703125 6.203125 28.144531 6.054688 28 C 5.9375 27.878906 5.894531 27.652344 5.894531 27.492188 C 5.890625 27.316406 5.621094 27.3125 5.621094 27.492188 C 5.625 27.765625 5.734375 28.238281 6.050781 28.304688 C 6.1875 28.332031 6.316406 28.253906 6.382812 28.132812 C 6.460938 27.984375 6.433594 27.796875 6.410156 27.636719 C 6.390625 27.464844 6.117188 27.464844 6.140625 27.636719 " fill-opacity="1" fill-rule="nonzero"/><path fill="#792619" d="M 9.449219 28.863281 C 9.425781 28.9375 9.394531 29.007812 9.351562 29.074219 C 9.328125 29.109375 9.246094 29.234375 9.199219 29.226562 C 9.148438 29.222656 9.117188 29.117188 9.113281 29.078125 C 9.101562 28.988281 9.132812 28.902344 9.160156 28.816406 C 9.214844 28.648438 8.953125 28.578125 8.898438 28.746094 C 8.816406 28.996094 8.804688 29.40625 9.125 29.492188 C 9.425781 29.574219 9.636719 29.160156 9.710938 28.933594 C 9.765625 28.769531 9.503906 28.695312 9.449219 28.863281 " fill-opacity="1" fill-rule="nonzero"/><path fill="#792619" d="M 6.011719 30.621094 C 6.011719 30.621094 6.011719 30.621094 6.015625 30.621094 C 6.011719 30.621094 6.011719 30.621094 6.011719 30.621094 Z M 5.726562 30.382812 C 5.707031 30.351562 5.691406 30.320312 5.679688 30.285156 C 5.671875 30.257812 5.679688 30.214844 5.671875 30.191406 C 5.699219 30.207031 5.742188 30.226562 5.761719 30.242188 C 5.769531 30.246094 5.773438 30.25 5.777344 30.253906 C 5.78125 30.257812 5.785156 30.261719 5.789062 30.261719 C 5.878906 30.328125 5.957031 30.417969 5.988281 30.527344 C 6 30.558594 6 30.589844 6 30.613281 C 5.890625 30.5625 5.796875 30.5 5.726562 30.382812 Z M 5.953125 30.050781 C 5.851562 29.960938 5.71875 29.867188 5.574219 29.914062 C 5.445312 29.957031 5.394531 30.105469 5.398438 30.230469 C 5.40625 30.503906 5.648438 30.792969 5.90625 30.875 C 6.101562 30.9375 6.277344 30.8125 6.273438 30.601562 C 6.269531 30.375 6.125 30.179688 5.953125 30.050781 " fill-opacity="1" fill-rule="nonzero"/><path fill="#792619" d="M 9.25 31.640625 C 9.171875 31.660156 9.0625 31.644531 9.019531 31.574219 C 8.960938 31.476562 9.03125 31.429688 9.113281 31.40625 C 9.125 31.40625 9.132812 31.402344 9.144531 31.402344 C 9.1875 31.386719 9.269531 31.429688 9.304688 31.460938 C 9.375 31.523438 9.335938 31.621094 9.25 31.640625 Z M 9.074219 31.136719 C 8.835938 31.175781 8.667969 31.386719 8.75 31.632812 C 8.828125 31.867188 9.09375 31.957031 9.320312 31.90625 C 9.554688 31.851562 9.6875 31.578125 9.566406 31.355469 C 9.484375 31.207031 9.242188 31.082031 9.074219 31.136719 " fill-opacity="1" fill-rule="nonzero"/><path fill="#792619" d="M 10.828125 27.289062 C 10.800781 27.175781 10.765625 27.066406 10.730469 26.957031 C 11.28125 27.152344 11.832031 27.347656 12.382812 27.542969 C 12.019531 27.953125 11.429688 28.046875 10.921875 27.851562 C 10.902344 27.664062 10.875 27.476562 10.828125 27.289062 Z M 10.03125 30.410156 C 9.941406 30.367188 9.847656 30.328125 9.75 30.300781 C 9.082031 30.113281 8.386719 30.027344 7.710938 29.851562 C 7.140625 29.617188 6.570312 29.375 6 29.128906 C 5.863281 29.066406 5.710938 28.980469 5.546875 28.90625 C 5.3125 28.21875 4.941406 27.4375 4.796875 26.667969 C 4.796875 26.65625 4.796875 26.644531 4.792969 26.632812 C 4.71875 26.203125 4.71875 25.777344 4.855469 25.375 C 5.039062 24.855469 5.503906 24.628906 6.050781 24.570312 C 6.101562 24.566406 6.152344 24.5625 6.203125 24.558594 C 6.832031 24.527344 7.53125 24.683594 8.027344 24.855469 C 7.753906 25.578125 8.148438 26.417969 8.730469 26.878906 C 9.125 27.191406 10.078125 27.695312 10.558594 27.335938 C 10.574219 27.390625 10.589844 27.449219 10.597656 27.503906 C 10.628906 27.648438 10.644531 27.792969 10.65625 27.9375 C 10.652344 27.957031 10.65625 27.976562 10.660156 27.996094 C 10.710938 28.847656 10.464844 29.667969 10.03125 30.410156 Z M 10.261719 31.726562 C 9.574219 32.945312 7.871094 32.359375 6.886719 31.902344 C 6.355469 31.65625 5.847656 31.320312 5.410156 30.929688 C 5.019531 30.585938 4.605469 29.941406 4.746094 29.382812 C 4.90625 28.753906 5.984375 29.417969 6.316406 29.558594 C 6.742188 29.742188 7.171875 29.921875 7.605469 30.101562 C 7.617188 30.105469 7.628906 30.109375 7.640625 30.117188 C 7.652344 30.117188 7.664062 30.121094 7.679688 30.125 C 8.125 30.238281 8.574219 30.324219 9.027344 30.417969 C 9.648438 30.546875 10.773438 30.820312 10.261719 31.726562 Z M 4.511719 26.609375 C 4.171875 26.847656 3.710938 26.425781 3.457031 26.097656 C 3.683594 26.066406 3.894531 25.972656 4.070312 25.8125 C 4.191406 25.695312 4.28125 25.558594 4.355469 25.40625 C 4.4375 25.238281 4.492188 25.167969 4.625 25.179688 C 4.4375 25.636719 4.429688 26.121094 4.511719 26.609375 Z M 5.027344 23.503906 C 5.03125 23.523438 5.042969 23.535156 5.0625 23.546875 C 5.144531 23.601562 5.226562 23.683594 5.300781 23.769531 C 5.378906 23.859375 5.457031 23.957031 5.53125 24.03125 C 5.632812 24.144531 5.738281 24.253906 5.84375 24.363281 C 5.640625 24.394531 5.425781 24.441406 5.230469 24.527344 C 5.132812 24.367188 5.058594 24.199219 5.027344 24.011719 C 5.011719 23.914062 5.007812 23.816406 5.011719 23.71875 C 5.011719 23.714844 5.007812 23.707031 5.011719 23.703125 C 5.011719 23.636719 5.019531 23.570312 5.027344 23.503906 Z M 9.820312 24.960938 C 9.871094 24.898438 9.941406 24.804688 10.007812 24.761719 C 10.050781 24.695312 10.113281 24.683594 10.1875 24.734375 C 10.300781 24.71875 10.34375 24.769531 10.320312 24.886719 C 10.417969 25.191406 10.296875 25.617188 10.128906 25.917969 C 9.949219 25.703125 9.742188 25.511719 9.515625 25.339844 C 9.613281 25.210938 9.710938 25.082031 9.820312 24.960938 Z M 12.71875 27.546875 C 12.769531 27.46875 12.714844 27.375 12.636719 27.347656 C 11.953125 27.101562 11.269531 26.863281 10.585938 26.617188 C 10.507812 26.453125 10.414062 26.296875 10.308594 26.148438 C 10.476562 25.894531 10.5625 25.609375 10.589844 25.304688 C 10.601562 25.140625 10.621094 24.910156 10.578125 24.714844 C 10.554688 24.613281 10.511719 24.519531 10.445312 24.453125 C 10.425781 24.433594 10.40625 24.417969 10.386719 24.402344 C 10.304688 24.351562 10.222656 24.339844 10.136719 24.359375 C 10.019531 24.386719 9.898438 24.46875 9.785156 24.574219 C 9.589844 24.757812 9.414062 25.011719 9.292969 25.179688 C 8.941406 24.941406 8.546875 24.75 8.136719 24.601562 C 7.515625 24.382812 6.84375 24.269531 6.183594 24.324219 C 6.03125 24.164062 5.882812 24.007812 5.730469 23.847656 C 5.632812 23.746094 5.535156 23.644531 5.433594 23.542969 C 5.425781 23.535156 5.417969 23.523438 5.410156 23.515625 C 5.285156 23.375 5.078125 23.089844 4.875 23.214844 C 4.820312 23.25 4.78125 23.316406 4.761719 23.394531 C 4.738281 23.480469 4.730469 23.574219 4.730469 23.667969 C 4.730469 23.765625 4.738281 23.855469 4.746094 23.917969 C 4.769531 24.191406 4.859375 24.433594 4.996094 24.664062 C 4.898438 24.734375 4.816406 24.820312 4.75 24.925781 C 4.546875 24.871094 4.339844 24.875 4.214844 25.074219 C 4.105469 25.246094 4.058594 25.441406 3.910156 25.585938 C 3.714844 25.78125 3.472656 25.847656 3.207031 25.832031 C 3.101562 25.828125 3.039062 25.953125 3.089844 26.039062 C 3.351562 26.484375 4.019531 27.140625 4.570312 26.890625 C 4.722656 27.546875 5.007812 28.199219 5.222656 28.792969 C 5.078125 28.761719 4.9375 28.769531 4.808594 28.835938 C 3.949219 29.285156 4.746094 30.710938 5.214844 31.125 C 6.144531 31.941406 7.367188 32.542969 8.59375 32.71875 C 9.417969 32.835938 10.691406 32.320312 10.648438 31.3125 C 10.636719 30.988281 10.484375 30.734375 10.257812 30.554688 C 10.695312 29.8125 10.953125 28.988281 10.9375 28.140625 C 11.597656 28.335938 12.324219 28.15625 12.71875 27.546875 " fill-opacity="1" fill-rule="nonzero"/><path fill="#792619" d="M 24.449219 30.328125 C 22.832031 31.097656 21.21875 31.863281 19.601562 32.632812 C 19.445312 32.710938 19.582031 32.945312 19.738281 32.871094 C 21.355469 32.101562 22.972656 31.332031 24.585938 30.5625 C 24.746094 30.488281 24.605469 30.25 24.449219 30.328125 " fill-opacity="1" fill-rule="nonzero"/><path fill="#792619" d="M 19.730469 33.816406 C 21.308594 33.347656 22.828125 32.71875 24.28125 31.9375 C 24.433594 31.855469 24.296875 31.617188 24.144531 31.703125 C 22.710938 32.472656 21.214844 33.089844 19.65625 33.554688 C 19.488281 33.605469 19.5625 33.867188 19.730469 33.816406 " fill-opacity="1" fill-rule="nonzero"/><path fill="#792619" d="M 24.265625 32.816406 C 22.773438 33.511719 21.234375 34.082031 19.648438 34.519531 C 19.480469 34.566406 19.550781 34.832031 19.71875 34.785156 C 21.328125 34.339844 22.890625 33.757812 24.402344 33.050781 C 24.558594 32.976562 24.421875 32.742188 24.265625 32.816406 " fill-opacity="1" fill-rule="nonzero"/><path fill="#792619" d="M 24.113281 33.847656 C 22.648438 34.5 21.183594 35.148438 19.714844 35.800781 C 19.554688 35.871094 19.695312 36.105469 19.851562 36.035156 C 21.320312 35.386719 22.785156 34.734375 24.253906 34.082031 C 24.410156 34.011719 24.273438 33.777344 24.113281 33.847656 " fill-opacity="1" fill-rule="nonzero"/><path fill="#792619" d="M 20.460938 28.164062 C 20.835938 28.074219 21.132812 28.445312 20.929688 28.777344 C 20.835938 28.925781 20.601562 28.789062 20.695312 28.640625 C 20.402344 28.574219 20.242188 28.648438 20.210938 28.863281 C 20.171875 29.007812 20.144531 29.160156 20.136719 29.3125 C 20.117188 29.542969 20.128906 29.78125 20.183594 30.007812 C 20.246094 30.257812 20.386719 30.71875 20.78125 30.484375 C 20.929688 30.398438 20.972656 30.109375 21.007812 29.953125 C 21.046875 29.78125 21.308594 29.855469 21.269531 30.027344 C 21.183594 30.40625 20.957031 30.957031 20.464844 30.820312 C 19.945312 30.675781 19.855469 29.914062 19.859375 29.472656 C 19.859375 29.042969 19.941406 28.292969 20.460938 28.164062 Z M 21.34375 28.078125 C 21.578125 27.78125 21.984375 27.863281 22.203125 28.136719 C 22.523438 28.542969 22.554688 29.25 22.351562 29.71875 C 22.21875 30.015625 21.871094 30.304688 21.605469 29.960938 C 21.285156 29.550781 21.296875 28.765625 21.320312 28.277344 C 21.320312 28.261719 21.324219 28.246094 21.328125 28.234375 C 21.304688 28.1875 21.304688 28.128906 21.34375 28.078125 Z M 22.792969 27.71875 C 22.867188 28.148438 22.964844 28.570312 23.085938 28.988281 C 23.160156 28.621094 23.21875 28.246094 23.257812 27.871094 C 23.273438 27.730469 23.488281 27.675781 23.527344 27.835938 C 23.589844 28.101562 23.652344 28.367188 23.714844 28.632812 C 23.738281 28.71875 23.75 28.925781 23.800781 28.980469 C 23.832031 29.015625 23.804688 28.824219 23.800781 28.761719 C 23.785156 28.238281 23.769531 27.710938 23.753906 27.1875 C 23.75 27.011719 24.019531 27.011719 24.027344 27.1875 C 24.039062 27.683594 24.054688 28.183594 24.070312 28.679688 C 24.074219 28.847656 24.148438 29.195312 23.953125 29.308594 C 23.679688 29.464844 23.515625 29.097656 23.414062 28.695312 C 23.367188 28.984375 23.308594 29.269531 23.242188 29.554688 C 23.207031 29.695312 23.019531 29.675781 22.980469 29.554688 C 22.78125 28.980469 22.632812 28.394531 22.53125 27.792969 C 22.503906 27.621094 22.765625 27.546875 22.792969 27.71875 Z M 19.316406 31.828125 C 19.320312 31.902344 19.375 31.941406 19.433594 31.945312 C 19.460938 31.949219 19.488281 31.949219 19.519531 31.933594 C 21.175781 31.121094 22.855469 30.351562 24.511719 29.542969 C 24.515625 29.539062 24.519531 29.539062 24.523438 29.535156 C 24.523438 29.535156 24.527344 29.53125 24.527344 29.53125 C 24.539062 29.527344 24.546875 29.523438 24.554688 29.515625 C 24.5625 29.507812 24.570312 29.496094 24.574219 29.488281 C 24.582031 29.480469 24.585938 29.46875 24.589844 29.457031 C 24.589844 29.445312 24.589844 29.433594 24.589844 29.421875 C 24.589844 29.417969 24.589844 29.417969 24.589844 29.417969 C 24.589844 29.414062 24.589844 29.410156 24.589844 29.40625 C 24.503906 28.226562 24.582031 27.046875 24.546875 25.871094 C 24.542969 25.835938 24.535156 25.808594 24.515625 25.789062 C 24.492188 25.742188 24.441406 25.714844 24.375 25.738281 C 22.738281 26.316406 21.085938 26.871094 19.507812 27.597656 C 19.453125 27.59375 19.394531 27.617188 19.371094 27.675781 C 19.347656 27.707031 19.34375 27.746094 19.359375 27.785156 C 19.34375 29.117188 19.328125 30.445312 19.316406 31.777344 C 19.3125 31.792969 19.3125 31.8125 19.316406 31.828125 " fill-opacity="1" fill-rule="nonzero"/><path fill="#792619" d="M 21.636719 29.167969 C 21.65625 29.273438 21.667969 29.421875 21.714844 29.515625 C 21.730469 29.5625 21.742188 29.609375 21.757812 29.65625 C 21.855469 29.671875 21.953125 29.691406 22.054688 29.710938 C 22.246094 29.582031 22.210938 28.972656 22.179688 28.792969 C 22.140625 28.578125 21.878906 27.929688 21.582031 28.222656 C 21.585938 28.238281 21.589844 28.257812 21.589844 28.277344 C 21.578125 28.578125 21.585938 28.871094 21.636719 29.167969 " fill-opacity="1" fill-rule="nonzero"/><path fill="#792619" d="M 13.957031 43.507812 C 13.914062 43.53125 13.863281 43.542969 13.804688 43.523438 C 13.355469 43.390625 13.441406 44.375 13.46875 44.585938 C 13.511719 44.902344 13.640625 45.179688 13.863281 45.40625 C 14.183594 45.726562 14.855469 46.078125 15.296875 45.804688 C 15.898438 45.429688 15.507812 44.546875 15.144531 44.160156 C 14.832031 43.828125 14.40625 43.585938 13.957031 43.507812 " fill-opacity="1" fill-rule="nonzero"/><g clip-path="url(#8cbced8d8b)"><path fill="#792619" d="M 15.152344 46.28125 C 14.359375 46.421875 13.46875 45.828125 13.179688 45.097656 C 12.988281 44.605469 12.890625 43.382812 13.449219 43.132812 C 13.480469 43.097656 13.53125 43.070312 13.59375 43.070312 C 14.507812 43.046875 15.476562 43.636719 15.851562 44.484375 C 16.152344 45.171875 16 46.132812 15.152344 46.28125 Z M 15.078125 48.367188 C 15.054688 48.597656 14.894531 48.679688 14.667969 48.636719 C 14.507812 48.605469 14.292969 48.339844 14.085938 48.125 C 13.929688 48.40625 13.722656 48.617188 13.472656 48.449219 C 13.300781 48.332031 13.257812 48.101562 13.261719 47.90625 C 13.128906 48.0625 12.957031 48.144531 12.726562 48.058594 C 12.472656 47.96875 12.277344 47.726562 12.203125 47.46875 C 12.117188 47.597656 12.011719 47.6875 11.882812 47.707031 C 11.5625 47.75 11.410156 47.496094 11.378906 47.222656 C 11.273438 47.324219 11.164062 47.421875 11.058594 47.523438 C 10.984375 47.59375 10.863281 47.5625 10.832031 47.460938 C 10.753906 47.207031 10.671875 46.953125 10.59375 46.695312 C 10.457031 46.8125 10.363281 46.949219 10.277344 47.121094 C 10.203125 47.273438 10.007812 47.15625 10.027344 47.019531 C 10.058594 46.800781 10.027344 46.605469 9.960938 46.410156 C 9.742188 46.515625 9.628906 46.695312 9.585938 46.953125 C 9.558594 47.128906 9.300781 47.050781 9.324219 46.878906 C 9.351562 46.703125 9.339844 46.535156 9.308594 46.375 C 9.160156 46.609375 8.929688 46.765625 8.625 46.832031 C 8.453125 46.867188 8.382812 46.605469 8.550781 46.566406 C 8.902344 46.492188 9.117188 46.285156 9.199219 45.9375 C 9.234375 45.792969 9.417969 45.820312 9.460938 45.9375 C 9.515625 46.078125 9.554688 46.214844 9.578125 46.351562 C 9.6875 46.242188 9.828125 46.15625 10 46.097656 C 10.078125 46.074219 10.140625 46.128906 10.167969 46.195312 C 10.226562 46.339844 10.265625 46.476562 10.289062 46.617188 C 10.378906 46.519531 10.476562 46.433594 10.59375 46.355469 C 10.671875 46.300781 10.769531 46.355469 10.792969 46.433594 C 10.871094 46.683594 10.949219 46.929688 11.027344 47.179688 C 11.164062 47.046875 11.304688 46.917969 11.441406 46.789062 C 11.535156 46.699219 11.710938 46.785156 11.667969 46.921875 C 11.570312 47.105469 11.671875 47.226562 11.96875 47.285156 C 12.027344 47.148438 12.082031 47.007812 12.132812 46.867188 C 12.203125 46.660156 12.257812 46.449219 12.308594 46.234375 C 12.34375 46.078125 12.566406 46.121094 12.574219 46.269531 C 12.59375 46.65625 12.277344 47.222656 12.535156 47.5625 C 13.132812 48.347656 13.359375 46.886719 13.410156 46.582031 C 13.433594 46.429688 13.691406 46.46875 13.675781 46.621094 C 13.652344 46.832031 13.625 47.046875 13.601562 47.261719 C 13.59375 47.355469 13.5625 47.480469 13.542969 47.601562 C 13.632812 47.554688 13.726562 47.558594 13.820312 47.585938 C 13.960938 47.546875 14.082031 47.46875 14.167969 47.3125 C 14.253906 47.15625 14.484375 47.292969 14.402344 47.449219 C 14.359375 47.53125 14.296875 47.695312 14.21875 47.867188 C 14.230469 47.882812 14.246094 47.898438 14.257812 47.914062 C 14.289062 47.949219 14.789062 48.523438 14.808594 48.367188 C 14.828125 48.195312 15.097656 48.195312 15.078125 48.367188 Z M 8.125 45.511719 C 7.964844 45.753906 8.148438 46.078125 8 46.332031 C 7.917969 46.476562 7.75 46.542969 7.589844 46.507812 C 7.34375 46.449219 7.203125 46.230469 7.132812 45.980469 C 7.039062 46.152344 6.914062 46.273438 6.742188 46.203125 C 6.429688 46.070312 6.542969 45.507812 6.542969 45.253906 C 6.542969 45.078125 6.816406 45.078125 6.816406 45.253906 C 6.816406 45.332031 6.753906 45.855469 6.824219 45.902344 C 6.851562 45.921875 7.089844 45.398438 7.117188 45.339844 C 7.1875 45.1875 7.386719 45.304688 7.363281 45.445312 C 7.328125 45.640625 7.359375 45.859375 7.449219 46.039062 C 7.46875 46.078125 7.511719 46.171875 7.554688 46.1875 C 7.628906 46.175781 7.707031 46.164062 7.78125 46.15625 C 7.785156 46.109375 7.789062 46.066406 7.796875 46.023438 C 7.804688 45.792969 7.753906 45.578125 7.890625 45.371094 C 7.984375 45.226562 8.21875 45.363281 8.125 45.511719 Z M 6.472656 45.617188 C 6.40625 45.875 6.191406 46.066406 5.925781 45.929688 C 5.757812 45.839844 5.675781 45.699219 5.648438 45.539062 C 5.210938 45.828125 4.574219 45.683594 4.59375 44.984375 C 4.597656 44.851562 4.617188 44.6875 4.679688 44.550781 C 4.566406 44.589844 4.457031 44.667969 4.347656 44.773438 C 4.253906 44.859375 4.195312 44.972656 4.089844 45.050781 C 3.949219 45.152344 3.785156 45.207031 3.613281 45.191406 C 3.265625 45.15625 2.960938 44.835938 2.972656 44.484375 C 2.976562 44.308594 3.246094 44.308594 3.242188 44.484375 C 3.230469 44.957031 3.828125 44.925781 4.074219 44.679688 C 4.167969 44.585938 4.226562 44.476562 4.328125 44.390625 C 4.425781 44.3125 4.53125 44.257812 4.652344 44.230469 C 4.800781 44.203125 4.945312 44.230469 5.070312 44.289062 C 5.292969 44.304688 5.453125 44.519531 5.472656 44.734375 C 5.488281 44.875 5.285156 44.917969 5.222656 44.804688 C 5.203125 44.773438 5.1875 44.75 5.167969 44.722656 C 4.972656 44.652344 4.878906 44.695312 4.882812 44.851562 C 4.875 44.914062 4.867188 44.976562 4.863281 45.042969 C 5.144531 45.4375 5.378906 45.507812 5.566406 45.257812 C 5.59375 45.242188 5.617188 45.21875 5.636719 45.199219 C 5.605469 45.175781 5.582031 45.140625 5.589844 45.085938 C 5.683594 44.363281 6.613281 45.03125 6.472656 45.617188 Z M 2.683594 40.820312 C 2.738281 40.179688 3.183594 39.582031 3.886719 39.855469 C 4.339844 40.03125 4.695312 40.574219 4.488281 41.050781 C 4.382812 41.292969 4.03125 41.082031 4.136719 40.84375 C 4.339844 40.382812 3.464844 39.976562 3.1875 40.429688 C 3.015625 40.703125 3.070312 41.179688 3.117188 41.484375 C 3.171875 41.800781 3.28125 42.109375 3.46875 42.371094 C 3.648438 42.613281 4.285156 43.222656 4.578125 42.789062 C 4.722656 42.570312 5.078125 42.777344 4.929688 42.996094 C 4.550781 43.550781 3.835938 43.3125 3.421875 42.925781 C 2.851562 42.402344 2.621094 41.582031 2.683594 40.820312 Z M 5.546875 40.582031 C 5.574219 41.003906 5.605469 41.421875 5.632812 41.84375 C 5.984375 41.949219 6.339844 42.058594 6.695312 42.164062 C 6.675781 41.765625 6.660156 41.367188 6.640625 40.96875 C 6.628906 40.703125 7.035156 40.703125 7.046875 40.96875 C 7.066406 41.410156 7.085938 41.851562 7.105469 42.292969 C 7.148438 42.304688 7.191406 42.316406 7.234375 42.332031 C 7.484375 42.40625 7.378906 42.800781 7.125 42.726562 C 7.125 42.726562 7.125 42.726562 7.125 42.722656 C 7.140625 43.097656 7.15625 43.472656 7.171875 43.847656 C 7.183594 44.113281 6.777344 44.109375 6.765625 43.847656 C 6.75 43.433594 6.730469 43.015625 6.710938 42.597656 C 6.363281 42.492188 6.011719 42.386719 5.660156 42.28125 C 5.683594 42.636719 5.707031 42.992188 5.730469 43.347656 C 5.75 43.613281 5.339844 43.609375 5.324219 43.347656 C 5.261719 42.425781 5.203125 41.503906 5.140625 40.582031 C 5.125 40.320312 5.53125 40.320312 5.546875 40.582031 Z M 8.460938 41.578125 C 8.511719 41.554688 8.5625 41.554688 8.609375 41.570312 C 10.066406 41.390625 11.179688 44 9.578125 44.558594 C 7.886719 45.148438 6.792969 42.300781 8.460938 41.578125 Z M 11.355469 46.226562 C 11.355469 46.265625 11.355469 46.304688 11.351562 46.34375 C 11.351562 46.363281 11.351562 46.378906 11.351562 46.398438 C 11.347656 46.472656 11.289062 46.53125 11.214844 46.53125 C 11.144531 46.535156 11.078125 46.46875 11.082031 46.398438 C 11.082031 46.339844 11.082031 46.28125 11.085938 46.226562 C 11.085938 46.148438 11.144531 46.09375 11.21875 46.089844 C 11.292969 46.085938 11.359375 46.15625 11.355469 46.226562 Z M 10.96875 42.386719 C 11.523438 42.054688 12.265625 42.222656 12.539062 42.828125 C 12.648438 43.066406 12.296875 43.273438 12.191406 43.035156 C 11.9375 42.484375 11.226562 42.53125 10.917969 42.988281 C 10.734375 43.265625 10.742188 43.605469 10.828125 43.910156 C 10.925781 44.257812 11.144531 44.582031 11.402344 44.832031 C 11.597656 45.023438 12.441406 45.671875 12.613281 45.105469 C 12.691406 44.855469 13.082031 44.960938 13.007812 45.214844 C 12.816406 45.839844 12.121094 45.777344 11.648438 45.523438 C 11.046875 45.199219 10.550781 44.566406 10.402344 43.894531 C 10.277344 43.324219 10.453125 42.699219 10.96875 42.386719 Z M 17.609375 43.332031 C 17.585938 42.710938 17.5625 42.09375 17.542969 41.472656 L 17.503906 39.617188 L 17.496094 39.109375 C 17.234375 38.714844 16.871094 38.46875 16.457031 38.863281 C 16.148438 39.15625 16.023438 39.601562 15.722656 39.890625 C 15.359375 40.242188 14.933594 39.953125 14.734375 39.585938 C 14.496094 39.160156 14.519531 38.59375 14.507812 38.117188 C 14.480469 37.167969 14.453125 36.058594 14.066406 35.171875 C 13.699219 34.339844 12.746094 34.046875 12.121094 34.828125 C 11.730469 35.3125 11.640625 35.976562 11.53125 36.570312 C 11.367188 37.457031 11.230469 38.351562 11.078125 39.242188 C 11.023438 39.554688 10.996094 40.316406 10.683594 40.492188 C 10.117188 40.816406 9.941406 39.851562 9.921875 39.507812 C 9.894531 39.03125 9.804688 38.402344 9.273438 38.230469 C 8.777344 38.070312 8.457031 38.535156 8.304688 38.9375 C 8.144531 39.363281 8.019531 39.839844 7.484375 39.855469 C 6.929688 39.871094 6.574219 39.359375 6.402344 38.886719 C 5.9375 37.609375 6.414062 36.042969 5.46875 34.9375 C 5.097656 34.503906 4.542969 34.175781 3.957031 34.230469 C 3.265625 34.292969 2.84375 34.882812 2.550781 35.460938 C 2.046875 36.453125 1.675781 37.589844 1.402344 38.699219 L 1.203125 39.476562 C 1.21875 39.628906 1.230469 39.785156 1.242188 39.9375 C 1.425781 41.957031 1.632812 43.96875 1.878906 45.980469 C 1.878906 45.984375 1.878906 45.988281 1.878906 45.992188 C 1.878906 46.046875 1.910156 46.097656 1.976562 46.113281 C 7.402344 47.320312 12.757812 48.839844 17.996094 50.710938 C 18.015625 50.71875 18.035156 50.722656 18.050781 50.71875 C 17.953125 49.492188 17.867188 48.269531 17.796875 47.039062 C 17.722656 45.804688 17.664062 44.566406 17.609375 43.332031 " fill-opacity="1" fill-rule="nonzero"/></g><path fill="#792619" d="M 13.5625 47.882812 C 13.550781 47.882812 13.539062 47.882812 13.53125 47.878906 C 13.53125 47.886719 13.53125 47.894531 13.53125 47.902344 C 13.496094 48.046875 13.558594 48.136719 13.714844 48.167969 C 13.761719 48.082031 13.804688 47.996094 13.851562 47.910156 C 13.832031 47.894531 13.808594 47.882812 13.789062 47.871094 C 13.71875 47.882812 13.640625 47.886719 13.5625 47.882812 " fill-opacity="1" fill-rule="nonzero"/><path fill="#792619" d="M 9.347656 44.199219 C 10.636719 43.933594 9.664062 41.6875 8.53125 42 C 7.550781 42.597656 8.144531 44.449219 9.347656 44.199219 " fill-opacity="1" fill-rule="nonzero"/><g clip-path="url(#5015c16d96)"><path fill="#792619" d="M 25.046875 45.464844 C 24.96875 45.5625 24.890625 45.664062 24.804688 45.757812 C 24.722656 45.851562 24.632812 45.941406 24.542969 46.035156 C 24.453125 46.125 24.363281 46.210938 24.269531 46.296875 C 24.171875 46.378906 24.078125 46.460938 23.976562 46.539062 C 23.875 46.613281 23.773438 46.683594 23.667969 46.757812 L 23.347656 46.957031 C 23.238281 47.023438 23.132812 47.089844 23.023438 47.15625 L 22.703125 47.351562 L 22.375 47.539062 L 22.042969 47.71875 L 21.707031 47.886719 C 21.253906 48.105469 20.796875 48.308594 20.328125 48.484375 L 20.308594 48.441406 C 20.746094 48.203125 21.179688 47.957031 21.597656 47.691406 L 21.910156 47.488281 L 22.21875 47.28125 L 22.523438 47.070312 L 22.824219 46.855469 C 22.921875 46.78125 23.019531 46.707031 23.117188 46.628906 L 23.402344 46.394531 C 23.496094 46.3125 23.59375 46.234375 23.691406 46.160156 C 23.789062 46.085938 23.886719 46.011719 23.988281 45.941406 C 24.085938 45.867188 24.1875 45.796875 24.289062 45.726562 C 24.390625 45.65625 24.492188 45.582031 24.597656 45.515625 C 24.699219 45.445312 24.804688 45.378906 24.910156 45.3125 C 25.015625 45.242188 25.121094 45.175781 25.238281 45.117188 L 25.269531 45.148438 C 25.199219 45.257812 25.125 45.363281 25.046875 45.464844 Z M 22.511719 46.089844 C 22.636719 46.003906 22.757812 45.921875 22.878906 45.835938 C 23 45.75 23.121094 45.664062 23.242188 45.574219 C 23.359375 45.484375 23.472656 45.390625 23.585938 45.292969 C 23.699219 45.195312 23.816406 45.109375 23.941406 45.03125 C 24.195312 44.878906 24.457031 44.734375 24.765625 44.636719 L 24.792969 44.671875 C 24.648438 44.960938 24.4375 45.191406 24.210938 45.398438 C 24.097656 45.5 23.972656 45.589844 23.839844 45.664062 C 23.703125 45.738281 23.566406 45.804688 23.433594 45.882812 C 23.300781 45.953125 23.167969 46.027344 23.03125 46.09375 C 22.894531 46.160156 22.757812 46.226562 22.621094 46.289062 C 22.339844 46.40625 22.058594 46.519531 21.773438 46.613281 L 21.753906 46.574219 C 22.011719 46.414062 22.265625 46.257812 22.511719 46.089844 Z M 26.09375 39.089844 C 26.089844 38.84375 26.089844 38.601562 26.089844 38.355469 C 26.058594 37.960938 25.988281 37.558594 25.832031 37.234375 C 25.828125 37.21875 25.820312 37.207031 25.8125 37.191406 C 25.683594 36.953125 25.433594 36.746094 25.171875 36.726562 C 25.078125 36.71875 24.988281 36.738281 24.898438 36.78125 C 24.863281 36.796875 24.828125 36.816406 24.796875 36.84375 C 24.363281 37.179688 24.476562 38.054688 24.449219 38.523438 C 24.433594 38.746094 24.460938 39.015625 24.40625 39.234375 C 24.398438 39.269531 24.328125 39.660156 24.179688 39.597656 C 24.164062 39.59375 24.128906 39.476562 24.105469 39.429688 C 24.023438 39.242188 23.921875 39.054688 23.703125 39.015625 C 23.5 38.984375 23.300781 39.109375 23.167969 39.25 C 23.074219 39.351562 23.015625 39.476562 22.933594 39.589844 C 22.839844 39.726562 22.734375 39.882812 22.523438 39.84375 C 22.351562 39.8125 22.199219 39.507812 22.160156 39.367188 C 22.015625 38.851562 22.25 37.964844 21.515625 37.792969 C 20.945312 37.660156 20.738281 38.328125 20.621094 38.75 C 20.375 39.621094 20.335938 40.480469 20.222656 41.367188 C 20.179688 41.695312 20.214844 41.636719 19.824219 41.742188 C 19.570312 41.933594 19.429688 41.902344 19.410156 41.640625 C 19.398438 41.566406 19.390625 41.492188 19.378906 41.417969 C 19.355469 41.257812 19.351562 41.097656 19.296875 40.945312 C 19.222656 40.742188 19.085938 40.589844 18.90625 40.5 C 18.851562 40.472656 18.792969 40.449219 18.734375 40.433594 C 18.699219 40.425781 18.664062 40.421875 18.632812 40.417969 C 18.371094 40.386719 18.148438 40.492188 17.988281 40.664062 L 18.015625 41.460938 L 18.0625 43.316406 L 18.09375 45.171875 C 18.101562 45.792969 18.113281 46.410156 18.113281 47.03125 C 18.125 48.253906 18.121094 49.476562 18.101562 50.703125 C 18.105469 50.699219 18.109375 50.695312 18.113281 50.691406 C 21.019531 49.332031 23.757812 47.605469 26.050781 45.339844 C 26.050781 45.335938 26.054688 45.332031 26.054688 45.332031 C 26.058594 45.328125 26.0625 45.324219 26.066406 45.320312 C 26.070312 45.3125 26.070312 45.308594 26.074219 45.304688 C 26.074219 45.300781 26.078125 45.300781 26.078125 45.296875 C 26.085938 45.28125 26.089844 45.261719 26.089844 45.246094 C 26.089844 45.246094 26.089844 45.242188 26.089844 45.242188 C 26.089844 45.242188 26.089844 45.238281 26.089844 45.238281 C 26.097656 43.1875 26.097656 41.140625 26.09375 39.089844 " fill-opacity="1" fill-rule="nonzero"/></g><path fill="#fadd6c" d="M 21.589844 15.375 C 21.667969 15.460938 21.742188 15.542969 21.820312 15.628906 C 21.878906 15.300781 21.933594 14.972656 21.992188 14.644531 C 21.917969 14.5625 21.839844 14.480469 21.761719 14.394531 C 21.5 14.109375 21.234375 13.824219 20.972656 13.539062 C 20.894531 13.453125 20.816406 13.371094 20.738281 13.289062 C 20.691406 13.585938 20.640625 13.886719 20.589844 14.183594 C 20.664062 14.277344 20.738281 14.371094 20.816406 14.464844 C 21.066406 14.773438 21.328125 15.074219 21.589844 15.375 " fill-opacity="1" fill-rule="nonzero"/><g clip-path="url(#9887c503a6)"><path fill="#fadd6c" d="M 17.371094 28.46875 C 17.371094 27.589844 17.375 26.707031 17.378906 25.824219 C 15.875 25.597656 14.371094 25.359375 12.871094 25.105469 C 13.300781 25.929688 13.597656 26.824219 13.726562 27.765625 C 14.039062 30.019531 13.269531 32.816406 11.007812 33.777344 C 8.421875 34.871094 5.511719 33.167969 3.882812 31.1875 C 2.160156 29.09375 1.191406 26.027344 2.472656 23.46875 C 2.503906 23.402344 2.535156 23.339844 2.574219 23.277344 C 1.875 23.148438 1.175781 23.023438 0.476562 22.898438 C 0.417969 22.886719 0.359375 22.878906 0.296875 22.867188 C 0.285156 22.863281 0.273438 22.859375 0.261719 22.855469 L 0.203125 22.84375 C 0.421875 28.394531 0.71875 33.941406 1.203125 39.476562 L 1.402344 38.699219 C 1.675781 37.589844 2.046875 36.453125 2.550781 35.460938 C 2.84375 34.882812 3.265625 34.292969 3.957031 34.230469 C 4.542969 34.175781 5.097656 34.503906 5.46875 34.9375 C 6.414062 36.042969 5.9375 37.609375 6.402344 38.886719 C 6.574219 39.359375 6.929688 39.871094 7.484375 39.855469 C 8.019531 39.839844 8.144531 39.363281 8.304688 38.9375 C 8.457031 38.535156 8.777344 38.070312 9.273438 38.230469 C 9.804688 38.402344 9.894531 39.03125 9.921875 39.507812 C 9.941406 39.851562 10.117188 40.816406 10.683594 40.492188 C 10.996094 40.316406 11.023438 39.554688 11.078125 39.242188 C 11.230469 38.351562 11.367188 37.457031 11.53125 36.570312 C 11.640625 35.976562 11.730469 35.3125 12.121094 34.828125 C 12.746094 34.046875 13.699219 34.339844 14.066406 35.171875 C 14.453125 36.058594 14.480469 37.167969 14.507812 38.117188 C 14.519531 38.59375 14.496094 39.160156 14.734375 39.585938 C 14.933594 39.953125 15.359375 40.242188 15.722656 39.890625 C 16.023438 39.601562 16.148438 39.15625 16.457031 38.863281 C 16.871094 38.46875 17.234375 38.714844 17.496094 39.109375 L 17.449219 35.902344 C 17.410156 33.425781 17.382812 30.949219 17.371094 28.46875 " fill-opacity="1" fill-rule="nonzero"/></g><g clip-path="url(#290ca05cc3)"><path fill="#fadd6c" d="M 26.007812 23.578125 C 26.007812 23.234375 26.007812 22.890625 26.007812 22.550781 L 25.734375 22.644531 C 23.054688 23.726562 20.378906 24.808594 17.699219 25.890625 C 17.695312 25.894531 17.6875 25.894531 17.683594 25.894531 C 17.625 25.914062 17.582031 25.886719 17.558594 25.847656 C 17.550781 25.847656 17.546875 25.847656 17.539062 25.847656 C 17.558594 26.71875 17.578125 27.59375 17.597656 28.46875 C 17.65625 30.941406 17.726562 33.417969 17.808594 35.890625 C 17.851562 37.128906 17.898438 38.367188 17.949219 39.605469 L 17.988281 40.664062 C 18.148438 40.492188 18.371094 40.386719 18.632812 40.417969 C 18.574219 35.925781 18.476562 31.429688 18.417969 26.9375 C 18.417969 26.871094 18.457031 26.828125 18.503906 26.8125 C 18.507812 26.808594 18.511719 26.808594 18.519531 26.804688 C 20.710938 25.933594 22.980469 25.253906 25.125 24.253906 C 25.144531 24.242188 25.167969 24.238281 25.1875 24.238281 C 25.25 24.238281 25.316406 24.277344 25.324219 24.355469 C 25.332031 24.375 25.332031 24.394531 25.328125 24.410156 C 25.328125 28.515625 25.171875 32.621094 25.171875 36.726562 C 25.433594 36.746094 25.683594 36.953125 25.8125 37.191406 C 25.820312 37.207031 25.828125 37.21875 25.832031 37.234375 C 25.988281 37.558594 26.058594 37.960938 26.089844 38.355469 C 26.070312 33.429688 26.023438 28.503906 26.007812 23.578125 " fill-opacity="1" fill-rule="nonzero"/></g><path fill="#fadd6c" d="M 20.042969 17.878906 C 20.304688 18.136719 20.644531 18.222656 20.964844 18.140625 C 20.878906 18.0625 20.796875 17.980469 20.714844 17.898438 C 20.578125 17.765625 20.4375 17.632812 20.300781 17.5 C 20.269531 17.464844 20.238281 17.433594 20.207031 17.402344 C 20.160156 17.355469 20.113281 17.308594 20.066406 17.261719 C 20.058594 17.316406 20.046875 17.375 20.039062 17.429688 C 20.023438 17.515625 20.011719 17.601562 19.996094 17.683594 C 19.992188 17.714844 19.996094 17.742188 20.003906 17.765625 C 20 17.804688 20.007812 17.84375 20.042969 17.878906 " fill-opacity="1" fill-rule="nonzero"/><path fill="#fadd6c" d="M 5.574219 29.914062 C 5.71875 29.867188 5.851562 29.960938 5.953125 30.050781 C 6.125 30.179688 6.269531 30.375 6.273438 30.601562 C 6.277344 30.8125 6.101562 30.9375 5.90625 30.875 C 5.648438 30.792969 5.40625 30.503906 5.398438 30.230469 C 5.394531 30.105469 5.445312 29.957031 5.574219 29.914062 Z M 9.074219 31.136719 C 9.242188 31.082031 9.484375 31.207031 9.566406 31.355469 C 9.6875 31.578125 9.554688 31.851562 9.320312 31.90625 C 9.09375 31.957031 8.828125 31.867188 8.75 31.632812 C 8.667969 31.386719 8.835938 31.175781 9.074219 31.136719 Z M 5.410156 30.929688 C 5.847656 31.320312 6.355469 31.65625 6.886719 31.902344 C 7.871094 32.359375 9.574219 32.945312 10.261719 31.726562 C 10.773438 30.820312 9.648438 30.546875 9.027344 30.417969 C 8.574219 30.324219 8.125 30.238281 7.679688 30.125 C 7.664062 30.121094 7.652344 30.117188 7.640625 30.117188 C 7.628906 30.109375 7.617188 30.105469 7.605469 30.101562 C 7.171875 29.921875 6.742188 29.742188 6.316406 29.558594 C 5.984375 29.417969 4.90625 28.753906 4.746094 29.382812 C 4.605469 29.941406 5.019531 30.585938 5.410156 30.929688 " fill-opacity="1" fill-rule="nonzero"/><path fill="#fadd6c" d="M 23.710938 0.460938 C 23.828125 0.476562 23.941406 0.492188 24.0625 0.511719 C 24.183594 0.527344 24.304688 0.546875 24.46875 0.566406 C 24.476562 0.535156 24.472656 0.503906 24.453125 0.46875 C 24.285156 0.167969 24.046875 0.0546875 23.707031 0.0234375 C 23.433594 0 23.113281 0.128906 22.957031 0.371094 C 23.117188 0.394531 23.238281 0.40625 23.363281 0.421875 L 23.710938 0.460938 " fill-opacity="1" fill-rule="nonzero"/><path fill="#fadd6c" d="M 23.933594 2.054688 C 24.007812 2.140625 24.085938 2.222656 24.160156 2.308594 C 24.261719 1.730469 24.363281 1.152344 24.464844 0.574219 C 24.46875 0.570312 24.464844 0.570312 24.46875 0.566406 C 24.394531 0.714844 24.253906 0.8125 24.109375 0.863281 C 23.960938 0.917969 23.804688 0.933594 23.65625 0.914062 C 23.503906 0.894531 23.355469 0.839844 23.226562 0.75 C 23.101562 0.660156 22.988281 0.535156 22.957031 0.371094 C 22.933594 0.386719 22.917969 0.410156 22.914062 0.445312 C 22.894531 0.558594 22.875 0.671875 22.855469 0.789062 C 22.929688 0.882812 23.007812 0.976562 23.082031 1.066406 C 23.355469 1.40625 23.640625 1.734375 23.933594 2.054688 " fill-opacity="1" fill-rule="nonzero"/><path fill="#fadd6c" d="M 23.5625 4.148438 C 23.636719 4.253906 23.710938 4.359375 23.78125 4.464844 C 23.851562 4.078125 23.917969 3.691406 23.984375 3.304688 C 23.910156 3.226562 23.832031 3.144531 23.753906 3.0625 C 23.464844 2.753906 23.179688 2.4375 22.90625 2.117188 C 22.828125 2.027344 22.753906 1.9375 22.675781 1.847656 C 22.628906 2.125 22.582031 2.402344 22.535156 2.679688 C 22.609375 2.785156 22.683594 2.890625 22.753906 2.996094 C 23.023438 3.378906 23.292969 3.765625 23.5625 4.148438 " fill-opacity="1" fill-rule="nonzero"/><path fill="#fadd6c" d="M 22.753906 8.765625 C 22.824219 8.875 22.898438 8.988281 22.96875 9.097656 C 23.035156 8.71875 23.101562 8.335938 23.167969 7.957031 C 23.097656 7.84375 23.023438 7.734375 22.953125 7.621094 C 22.695312 7.21875 22.4375 6.816406 22.175781 6.414062 C 22.105469 6.304688 22.03125 6.191406 21.960938 6.078125 C 21.894531 6.464844 21.828125 6.851562 21.761719 7.242188 C 21.835938 7.351562 21.910156 7.464844 21.980469 7.574219 C 22.238281 7.972656 22.496094 8.367188 22.753906 8.765625 " fill-opacity="1" fill-rule="nonzero"/><path fill="#fadd6c" d="M 9.25 31.640625 C 9.335938 31.621094 9.375 31.523438 9.304688 31.460938 C 9.269531 31.429688 9.1875 31.386719 9.144531 31.402344 C 9.132812 31.402344 9.125 31.40625 9.113281 31.40625 C 9.03125 31.429688 8.960938 31.476562 9.019531 31.574219 C 9.0625 31.644531 9.171875 31.660156 9.25 31.640625 " fill-opacity="1" fill-rule="nonzero"/><path fill="#fadd6c" d="M 21.941406 13.386719 C 22.015625 13.46875 22.09375 13.550781 22.171875 13.636719 C 22.226562 13.320312 22.28125 13.003906 22.335938 12.6875 C 22.261719 12.59375 22.1875 12.496094 22.113281 12.402344 C 21.851562 12.070312 21.589844 11.738281 21.332031 11.40625 C 21.257812 11.3125 21.183594 11.214844 21.105469 11.117188 C 21.042969 11.503906 20.976562 11.886719 20.914062 12.269531 C 20.988281 12.355469 21.066406 12.4375 21.144531 12.523438 C 21.410156 12.808594 21.675781 13.097656 21.941406 13.386719 " fill-opacity="1" fill-rule="nonzero"/><path fill="#fadd6c" d="M 10.128906 25.917969 C 10.296875 25.617188 10.417969 25.191406 10.320312 24.886719 C 10.34375 24.769531 10.300781 24.71875 10.1875 24.734375 C 10.113281 24.683594 10.050781 24.695312 10.007812 24.761719 C 9.941406 24.804688 9.871094 24.898438 9.820312 24.960938 C 9.710938 25.082031 9.613281 25.210938 9.515625 25.339844 C 9.742188 25.511719 9.949219 25.703125 10.128906 25.917969 " fill-opacity="1" fill-rule="nonzero"/><path fill="#fadd6c" d="M 5.726562 30.382812 C 5.796875 30.5 5.890625 30.5625 6 30.613281 C 6 30.589844 6 30.558594 5.988281 30.527344 C 5.957031 30.417969 5.878906 30.328125 5.789062 30.261719 C 5.785156 30.261719 5.78125 30.257812 5.777344 30.253906 C 5.773438 30.25 5.769531 30.246094 5.761719 30.242188 C 5.742188 30.226562 5.699219 30.207031 5.671875 30.191406 C 5.679688 30.214844 5.671875 30.257812 5.679688 30.285156 C 5.691406 30.320312 5.707031 30.351562 5.726562 30.382812 " fill-opacity="1" fill-rule="nonzero"/><path fill="#fadd6c" d="M 5.027344 24.011719 C 5.058594 24.199219 5.132812 24.367188 5.230469 24.527344 C 5.425781 24.441406 5.640625 24.394531 5.84375 24.363281 C 5.738281 24.253906 5.632812 24.144531 5.53125 24.03125 C 5.457031 23.957031 5.378906 23.859375 5.300781 23.769531 C 5.226562 23.683594 5.144531 23.601562 5.0625 23.546875 C 5.042969 23.535156 5.03125 23.523438 5.027344 23.503906 C 5.019531 23.570312 5.011719 23.636719 5.011719 23.703125 C 5.007812 23.707031 5.011719 23.714844 5.011719 23.71875 C 5.007812 23.816406 5.011719 23.914062 5.027344 24.011719 " fill-opacity="1" fill-rule="nonzero"/><path fill="#fadd6c" d="M 20.582031 16.621094 C 20.691406 16.730469 20.800781 16.84375 20.910156 16.953125 C 21.023438 17.066406 21.140625 17.175781 21.253906 17.289062 C 21.285156 17.316406 21.3125 17.34375 21.34375 17.371094 C 21.390625 17.417969 21.441406 17.46875 21.488281 17.515625 C 21.503906 17.429688 21.519531 17.347656 21.53125 17.265625 C 21.542969 17.199219 21.554688 17.132812 21.566406 17.070312 C 21.582031 16.980469 21.597656 16.890625 21.613281 16.800781 C 21.625 16.746094 21.632812 16.691406 21.644531 16.636719 C 21.566406 16.554688 21.488281 16.472656 21.414062 16.386719 C 21.148438 16.101562 20.890625 15.808594 20.636719 15.511719 C 20.5625 15.421875 20.484375 15.332031 20.410156 15.242188 C 20.351562 15.585938 20.292969 15.925781 20.234375 16.265625 C 20.3125 16.347656 20.390625 16.425781 20.46875 16.503906 C 20.507812 16.542969 20.542969 16.582031 20.582031 16.621094 " fill-opacity="1" fill-rule="nonzero"/><path fill="#fadd6c" d="M 22.300781 11.332031 C 22.375 11.425781 22.453125 11.519531 22.527344 11.613281 C 22.605469 11.167969 22.683594 10.722656 22.761719 10.273438 C 22.691406 10.164062 22.617188 10.054688 22.546875 9.941406 C 22.289062 9.550781 22.035156 9.15625 21.78125 8.761719 C 21.707031 8.652344 21.636719 8.539062 21.5625 8.425781 C 21.472656 8.960938 21.382812 9.496094 21.292969 10.03125 C 21.367188 10.128906 21.441406 10.226562 21.515625 10.320312 C 21.777344 10.660156 22.039062 10.996094 22.300781 11.332031 " fill-opacity="1" fill-rule="nonzero"/><path fill="#fadd6c" d="M 23.160156 6.441406 C 23.234375 6.550781 23.304688 6.664062 23.375 6.773438 C 23.445312 6.382812 23.515625 5.988281 23.582031 5.597656 C 23.511719 5.492188 23.4375 5.386719 23.363281 5.28125 C 23.097656 4.902344 22.832031 4.519531 22.5625 4.136719 C 22.488281 4.03125 22.414062 3.925781 22.34375 3.820312 C 22.28125 4.175781 22.222656 4.53125 22.160156 4.886719 C 22.234375 5 22.304688 5.113281 22.378906 5.222656 C 22.640625 5.628906 22.898438 6.035156 23.160156 6.441406 " fill-opacity="1" fill-rule="nonzero"/><path fill="#ffffff" d="M 13.234375 22.785156 C 13.289062 22.902344 13.347656 23.019531 13.414062 23.140625 C 13.480469 23.261719 13.546875 23.386719 13.648438 23.527344 C 13.734375 23.375 13.761719 23.210938 13.757812 23.050781 C 13.75 22.890625 13.710938 22.734375 13.640625 22.589844 C 13.574219 22.445312 13.476562 22.316406 13.359375 22.207031 C 13.238281 22.105469 13.097656 22.019531 12.925781 21.992188 C 12.96875 22.160156 13.023438 22.292969 13.074219 22.421875 C 13.125 22.546875 13.179688 22.667969 13.234375 22.785156 " fill-opacity="1" fill-rule="nonzero"/><path fill="#ffffff" d="M 21.269531 30.027344 C 21.308594 29.855469 21.046875 29.78125 21.007812 29.953125 C 20.972656 30.109375 20.929688 30.398438 20.78125 30.484375 C 20.386719 30.71875 20.246094 30.257812 20.183594 30.007812 C 20.128906 29.78125 20.117188 29.542969 20.136719 29.3125 C 20.144531 29.160156 20.171875 29.007812 20.210938 28.863281 C 20.242188 28.648438 20.402344 28.574219 20.695312 28.640625 C 20.601562 28.789062 20.835938 28.925781 20.929688 28.777344 C 21.132812 28.445312 20.835938 28.074219 20.460938 28.164062 C 19.941406 28.292969 19.859375 29.042969 19.859375 29.472656 C 19.855469 29.914062 19.945312 30.675781 20.464844 30.820312 C 20.957031 30.957031 21.183594 30.40625 21.269531 30.027344 " fill-opacity="1" fill-rule="nonzero"/><path fill="#ffffff" d="M 22.179688 28.792969 C 22.210938 28.972656 22.246094 29.582031 22.054688 29.710938 C 21.953125 29.691406 21.855469 29.671875 21.757812 29.65625 C 21.742188 29.609375 21.730469 29.5625 21.714844 29.515625 C 21.667969 29.421875 21.65625 29.273438 21.636719 29.167969 C 21.585938 28.871094 21.578125 28.578125 21.589844 28.277344 C 21.589844 28.257812 21.585938 28.238281 21.582031 28.222656 C 21.878906 27.929688 22.140625 28.578125 22.179688 28.792969 Z M 21.605469 29.960938 C 21.871094 30.304688 22.21875 30.015625 22.351562 29.71875 C 22.554688 29.25 22.523438 28.542969 22.203125 28.136719 C 21.984375 27.863281 21.578125 27.78125 21.34375 28.078125 C 21.304688 28.128906 21.304688 28.1875 21.328125 28.234375 C 21.324219 28.246094 21.320312 28.261719 21.320312 28.277344 C 21.296875 28.765625 21.285156 29.550781 21.605469 29.960938 " fill-opacity="1" fill-rule="nonzero"/><path fill="#ffffff" d="M 3.421875 42.925781 C 3.835938 43.3125 4.550781 43.550781 4.929688 42.996094 C 5.078125 42.777344 4.722656 42.570312 4.578125 42.789062 C 4.285156 43.222656 3.648438 42.613281 3.46875 42.371094 C 3.28125 42.109375 3.171875 41.800781 3.117188 41.484375 C 3.070312 41.179688 3.015625 40.703125 3.1875 40.429688 C 3.464844 39.976562 4.339844 40.382812 4.136719 40.84375 C 4.03125 41.082031 4.382812 41.292969 4.488281 41.050781 C 4.695312 40.574219 4.339844 40.03125 3.886719 39.855469 C 3.183594 39.582031 2.738281 40.179688 2.683594 40.820312 C 2.621094 41.582031 2.851562 42.402344 3.421875 42.925781 " fill-opacity="1" fill-rule="nonzero"/><path fill="#ffffff" d="M 7.234375 42.332031 C 7.191406 42.316406 7.148438 42.304688 7.105469 42.292969 C 7.085938 41.851562 7.066406 41.410156 7.046875 40.96875 C 7.035156 40.703125 6.628906 40.703125 6.640625 40.96875 C 6.660156 41.367188 6.675781 41.765625 6.695312 42.164062 C 6.339844 42.058594 5.984375 41.949219 5.632812 41.84375 C 5.605469 41.421875 5.574219 41.003906 5.546875 40.582031 C 5.53125 40.320312 5.125 40.320312 5.140625 40.582031 C 5.203125 41.503906 5.261719 42.425781 5.324219 43.347656 C 5.339844 43.609375 5.75 43.613281 5.730469 43.347656 C 5.707031 42.992188 5.683594 42.636719 5.660156 42.28125 C 6.011719 42.386719 6.363281 42.492188 6.710938 42.597656 C 6.730469 43.015625 6.75 43.433594 6.765625 43.847656 C 6.777344 44.109375 7.183594 44.113281 7.171875 43.847656 C 7.15625 43.472656 7.140625 43.097656 7.125 42.722656 C 7.125 42.726562 7.125 42.726562 7.125 42.726562 C 7.378906 42.800781 7.484375 42.40625 7.234375 42.332031 " fill-opacity="1" fill-rule="nonzero"/><path fill="#ffffff" d="M 9.347656 44.199219 C 8.144531 44.449219 7.550781 42.597656 8.53125 42 C 9.664062 41.6875 10.636719 43.933594 9.347656 44.199219 Z M 8.609375 41.570312 C 8.5625 41.554688 8.511719 41.554688 8.460938 41.578125 C 6.792969 42.300781 7.886719 45.148438 9.578125 44.558594 C 11.179688 44 10.066406 41.390625 8.609375 41.570312 " fill-opacity="1" fill-rule="nonzero"/><path fill="#ffffff" d="M 10.402344 43.894531 C 10.550781 44.566406 11.046875 45.199219 11.648438 45.523438 C 12.121094 45.777344 12.816406 45.839844 13.007812 45.214844 C 13.082031 44.960938 12.691406 44.855469 12.613281 45.105469 C 12.441406 45.671875 11.597656 45.023438 11.402344 44.832031 C 11.144531 44.582031 10.925781 44.257812 10.828125 43.910156 C 10.742188 43.605469 10.734375 43.265625 10.917969 42.988281 C 11.226562 42.53125 11.9375 42.484375 12.191406 43.035156 C 12.296875 43.273438 12.648438 43.066406 12.539062 42.828125 C 12.265625 42.222656 11.523438 42.054688 10.96875 42.386719 C 10.453125 42.699219 10.277344 43.324219 10.402344 43.894531 " fill-opacity="1" fill-rule="nonzero"/><path fill="#ffffff" d="M 15.296875 45.804688 C 14.855469 46.078125 14.183594 45.726562 13.863281 45.40625 C 13.640625 45.179688 13.511719 44.902344 13.46875 44.585938 C 13.441406 44.375 13.355469 43.390625 13.804688 43.523438 C 13.863281 43.542969 13.914062 43.53125 13.957031 43.507812 C 14.40625 43.585938 14.832031 43.828125 15.144531 44.160156 C 15.507812 44.546875 15.898438 45.429688 15.296875 45.804688 Z M 13.59375 43.070312 C 13.53125 43.070312 13.480469 43.097656 13.449219 43.132812 C 12.890625 43.382812 12.988281 44.605469 13.179688 45.097656 C 13.46875 45.828125 14.359375 46.421875 15.152344 46.28125 C 16 46.132812 16.152344 45.171875 15.851562 44.484375 C 15.476562 43.636719 14.507812 43.046875 13.59375 43.070312 " fill-opacity="1" fill-rule="nonzero"/><path fill="#ffffff" d="M 6.046875 45.257812 C 5.964844 45.285156 5.921875 45.285156 5.921875 45.253906 C 5.933594 45.230469 5.949219 45.207031 5.960938 45.183594 C 5.957031 45.179688 5.957031 45.179688 5.953125 45.179688 C 5.960938 45.167969 5.964844 45.160156 5.972656 45.148438 C 5.976562 45.140625 5.980469 45.132812 5.980469 45.125 C 6.226562 45.214844 6.246094 45.257812 6.046875 45.257812 Z M 5.589844 45.085938 C 5.582031 45.140625 5.605469 45.175781 5.636719 45.199219 C 5.617188 45.21875 5.59375 45.242188 5.566406 45.257812 C 5.378906 45.507812 5.144531 45.4375 4.863281 45.042969 C 4.867188 44.976562 4.875 44.914062 4.882812 44.851562 C 4.878906 44.695312 4.972656 44.652344 5.167969 44.722656 C 5.1875 44.75 5.203125 44.773438 5.222656 44.804688 C 5.285156 44.917969 5.488281 44.875 5.472656 44.734375 C 5.453125 44.519531 5.292969 44.304688 5.070312 44.289062 C 4.945312 44.230469 4.800781 44.203125 4.652344 44.230469 C 4.53125 44.257812 4.425781 44.3125 4.328125 44.390625 C 4.226562 44.476562 4.167969 44.585938 4.074219 44.679688 C 3.828125 44.925781 3.230469 44.957031 3.242188 44.484375 C 3.246094 44.308594 2.976562 44.308594 2.972656 44.484375 C 2.960938 44.835938 3.265625 45.15625 3.613281 45.191406 C 3.785156 45.207031 3.949219 45.152344 4.089844 45.050781 C 4.195312 44.972656 4.253906 44.859375 4.347656 44.773438 C 4.457031 44.667969 4.566406 44.589844 4.679688 44.550781 C 4.617188 44.6875 4.597656 44.851562 4.59375 44.984375 C 4.574219 45.683594 5.210938 45.828125 5.648438 45.539062 C 5.675781 45.699219 5.757812 45.839844 5.925781 45.929688 C 6.191406 46.066406 6.40625 45.875 6.472656 45.617188 C 6.613281 45.03125 5.683594 44.363281 5.589844 45.085938 " fill-opacity="1" fill-rule="nonzero"/><path fill="#ffffff" d="M 7.890625 45.371094 C 7.753906 45.578125 7.804688 45.792969 7.796875 46.023438 C 7.789062 46.066406 7.785156 46.109375 7.78125 46.15625 C 7.707031 46.164062 7.628906 46.175781 7.554688 46.1875 C 7.511719 46.171875 7.46875 46.078125 7.449219 46.039062 C 7.359375 45.859375 7.328125 45.640625 7.363281 45.445312 C 7.386719 45.304688 7.1875 45.1875 7.117188 45.339844 C 7.089844 45.398438 6.851562 45.921875 6.824219 45.902344 C 6.753906 45.855469 6.816406 45.332031 6.816406 45.253906 C 6.816406 45.078125 6.542969 45.078125 6.542969 45.253906 C 6.542969 45.507812 6.429688 46.070312 6.742188 46.203125 C 6.914062 46.273438 7.039062 46.152344 7.132812 45.980469 C 7.203125 46.230469 7.34375 46.449219 7.589844 46.507812 C 7.75 46.542969 7.917969 46.476562 8 46.332031 C 8.148438 46.078125 7.964844 45.753906 8.125 45.511719 C 8.21875 45.363281 7.984375 45.226562 7.890625 45.371094 " fill-opacity="1" fill-rule="nonzero"/><path fill="#ffffff" d="M 13.714844 48.167969 C 13.558594 48.136719 13.496094 48.046875 13.53125 47.902344 C 13.53125 47.894531 13.53125 47.886719 13.53125 47.878906 C 13.539062 47.882812 13.550781 47.882812 13.5625 47.882812 C 13.640625 47.886719 13.71875 47.882812 13.789062 47.871094 C 13.808594 47.882812 13.832031 47.894531 13.851562 47.910156 C 13.804688 47.996094 13.761719 48.082031 13.714844 48.167969 Z M 14.808594 48.367188 C 14.789062 48.523438 14.289062 47.949219 14.257812 47.914062 C 14.246094 47.898438 14.230469 47.882812 14.21875 47.867188 C 14.296875 47.695312 14.359375 47.53125 14.402344 47.449219 C 14.484375 47.292969 14.253906 47.15625 14.167969 47.3125 C 14.082031 47.46875 13.960938 47.546875 13.820312 47.585938 C 13.726562 47.558594 13.632812 47.554688 13.542969 47.601562 C 13.5625 47.480469 13.59375 47.355469 13.601562 47.261719 C 13.625 47.046875 13.652344 46.832031 13.675781 46.621094 C 13.691406 46.46875 13.433594 46.429688 13.410156 46.582031 C 13.359375 46.886719 13.132812 48.347656 12.535156 47.5625 C 12.277344 47.222656 12.59375 46.65625 12.574219 46.269531 C 12.566406 46.121094 12.34375 46.078125 12.308594 46.234375 C 12.257812 46.449219 12.203125 46.660156 12.132812 46.867188 C 12.082031 47.007812 12.027344 47.148438 11.96875 47.285156 C 11.671875 47.226562 11.570312 47.105469 11.667969 46.921875 C 11.710938 46.785156 11.535156 46.699219 11.441406 46.789062 C 11.304688 46.917969 11.164062 47.046875 11.027344 47.179688 C 10.949219 46.929688 10.871094 46.683594 10.792969 46.433594 C 10.769531 46.355469 10.671875 46.300781 10.59375 46.355469 C 10.476562 46.433594 10.378906 46.519531 10.289062 46.617188 C 10.265625 46.476562 10.226562 46.339844 10.167969 46.195312 C 10.140625 46.128906 10.078125 46.074219 10 46.097656 C 9.828125 46.15625 9.6875 46.242188 9.578125 46.351562 C 9.554688 46.214844 9.515625 46.078125 9.460938 45.9375 C 9.417969 45.820312 9.234375 45.792969 9.199219 45.9375 C 9.117188 46.285156 8.902344 46.492188 8.550781 46.566406 C 8.382812 46.605469 8.453125 46.867188 8.625 46.832031 C 8.929688 46.765625 9.160156 46.609375 9.308594 46.375 C 9.339844 46.535156 9.351562 46.703125 9.324219 46.878906 C 9.300781 47.050781 9.558594 47.128906 9.585938 46.953125 C 9.628906 46.695312 9.742188 46.515625 9.960938 46.410156 C 10.027344 46.605469 10.058594 46.800781 10.027344 47.019531 C 10.007812 47.15625 10.203125 47.273438 10.277344 47.121094 C 10.363281 46.949219 10.457031 46.8125 10.59375 46.695312 C 10.671875 46.953125 10.753906 47.207031 10.832031 47.460938 C 10.863281 47.5625 10.984375 47.59375 11.058594 47.523438 C 11.164062 47.421875 11.273438 47.324219 11.378906 47.222656 C 11.410156 47.496094 11.5625 47.75 11.882812 47.707031 C 12.011719 47.6875 12.117188 47.597656 12.203125 47.46875 C 12.277344 47.726562 12.472656 47.96875 12.726562 48.058594 C 12.957031 48.144531 13.128906 48.0625 13.261719 47.90625 C 13.257812 48.101562 13.300781 48.332031 13.472656 48.449219 C 13.722656 48.617188 13.929688 48.40625 14.085938 48.125 C 14.292969 48.339844 14.507812 48.605469 14.667969 48.636719 C 14.894531 48.679688 15.054688 48.597656 15.078125 48.367188 C 15.097656 48.195312 14.828125 48.195312 14.808594 48.367188 " fill-opacity="1" fill-rule="nonzero"/><path fill="#ffffff" d="M 11.085938 46.226562 C 11.082031 46.28125 11.082031 46.339844 11.082031 46.398438 C 11.078125 46.46875 11.144531 46.535156 11.214844 46.53125 C 11.289062 46.53125 11.347656 46.472656 11.351562 46.398438 C 11.351562 46.378906 11.351562 46.363281 11.351562 46.34375 C 11.355469 46.304688 11.355469 46.265625 11.355469 46.226562 C 11.359375 46.15625 11.292969 46.085938 11.21875 46.089844 C 11.144531 46.09375 11.085938 46.148438 11.085938 46.226562 " fill-opacity="1" fill-rule="nonzero"/><path fill="#ffffff" d="M 23.800781 28.980469 C 23.75 28.925781 23.738281 28.71875 23.714844 28.632812 C 23.652344 28.367188 23.589844 28.101562 23.527344 27.835938 C 23.488281 27.675781 23.273438 27.730469 23.257812 27.871094 C 23.21875 28.246094 23.160156 28.621094 23.085938 28.988281 C 22.964844 28.570312 22.867188 28.148438 22.792969 27.71875 C 22.765625 27.546875 22.503906 27.621094 22.53125 27.792969 C 22.632812 28.394531 22.78125 28.980469 22.980469 29.554688 C 23.019531 29.675781 23.207031 29.695312 23.242188 29.554688 C 23.308594 29.269531 23.367188 28.984375 23.414062 28.695312 C 23.515625 29.097656 23.679688 29.464844 23.953125 29.308594 C 24.148438 29.195312 24.074219 28.847656 24.070312 28.679688 C 24.054688 28.183594 24.039062 27.683594 24.027344 27.1875 C 24.019531 27.011719 23.75 27.011719 23.753906 27.1875 C 23.769531 27.710938 23.785156 28.238281 23.800781 28.761719 C 23.804688 28.824219 23.832031 29.015625 23.800781 28.980469 " fill-opacity="1" fill-rule="nonzero"/><g clip-path="url(#65a0095405)"><path fill="#ffffff" d="M 17.453125 21.039062 Z M 26.011719 17.632812 L 26.003906 17.613281 C 25.621094 17.6875 25.246094 17.789062 24.878906 17.898438 C 24.691406 17.953125 24.511719 18.011719 24.328125 18.070312 L 23.78125 18.257812 C 23.421875 18.390625 23.066406 18.535156 22.714844 18.691406 C 22.363281 18.855469 22.015625 19.011719 21.664062 19.167969 L 19.554688 20.097656 C 18.855469 20.410156 18.15625 20.710938 17.449219 21.015625 C 17.09375 20.929688 16.734375 20.859375 16.378906 20.785156 C 16.015625 20.710938 15.65625 20.636719 15.296875 20.566406 C 14.578125 20.425781 13.855469 20.292969 13.132812 20.15625 C 12.414062 20.027344 11.6875 19.90625 10.964844 19.796875 C 10.238281 19.691406 9.511719 19.582031 8.785156 19.46875 C 7.335938 19.242188 5.882812 19.015625 4.429688 18.800781 C 2.980469 18.597656 1.527344 18.394531 0.0703125 18.234375 C 0.0664062 18.234375 0.0664062 18.234375 0.0625 18.234375 L 0.0546875 18.28125 C 1.503906 18.511719 2.953125 18.757812 4.394531 19.027344 C 5.839844 19.285156 7.28125 19.554688 8.726562 19.828125 L 10.890625 20.242188 C 11.609375 20.378906 12.335938 20.5 13.0625 20.605469 L 14.15625 20.753906 C 14.519531 20.800781 14.882812 20.847656 15.25 20.882812 C 15.617188 20.921875 15.980469 20.957031 16.347656 20.988281 C 16.707031 21.015625 17.070312 21.042969 17.429688 21.058594 C 17.402344 22.648438 17.386719 24.234375 17.378906 25.824219 C 17.375 26.707031 17.371094 27.589844 17.371094 28.46875 C 17.382812 30.949219 17.410156 33.425781 17.449219 35.902344 L 17.496094 39.109375 L 17.503906 39.617188 L 17.542969 41.472656 C 17.5625 42.09375 17.585938 42.710938 17.609375 43.332031 C 17.664062 44.566406 17.722656 45.804688 17.796875 47.039062 C 17.867188 48.269531 17.953125 49.492188 18.050781 50.71875 C 18.054688 50.730469 18.054688 50.738281 18.054688 50.75 L 18.101562 50.746094 C 18.101562 50.730469 18.101562 50.714844 18.101562 50.703125 C 18.121094 49.476562 18.125 48.253906 18.113281 47.03125 C 18.113281 46.410156 18.101562 45.792969 18.09375 45.171875 L 18.0625 43.316406 L 18.015625 41.460938 L 17.988281 40.664062 L 17.949219 39.605469 C 17.898438 38.367188 17.851562 37.128906 17.808594 35.890625 C 17.726562 33.417969 17.65625 30.941406 17.597656 28.46875 C 17.578125 27.59375 17.558594 26.71875 17.539062 25.847656 C 17.507812 24.25 17.484375 22.652344 17.476562 21.054688 C 18.203125 20.820312 18.921875 20.5625 19.640625 20.308594 L 21.800781 19.503906 C 22.160156 19.371094 22.519531 19.238281 22.882812 19.109375 C 23.242188 18.980469 23.597656 18.835938 23.949219 18.683594 C 24.300781 18.523438 24.648438 18.367188 24.992188 18.195312 C 25.335938 18.027344 25.679688 17.855469 26.011719 17.660156 C 26.015625 17.65625 26.015625 17.65625 26.019531 17.65625 L 26.011719 17.632812 " fill-opacity="1" fill-rule="nonzero"/></g><path fill="#ffffff" d="M 24.910156 45.3125 C 24.804688 45.378906 24.699219 45.445312 24.597656 45.515625 C 24.492188 45.582031 24.390625 45.65625 24.289062 45.726562 C 24.1875 45.796875 24.085938 45.867188 23.988281 45.941406 C 23.886719 46.011719 23.789062 46.085938 23.691406 46.160156 C 23.59375 46.234375 23.496094 46.3125 23.402344 46.394531 L 23.117188 46.628906 C 23.019531 46.707031 22.921875 46.78125 22.824219 46.855469 L 22.523438 47.070312 L 22.21875 47.28125 L 21.910156 47.488281 L 21.597656 47.691406 C 21.179688 47.957031 20.746094 48.203125 20.308594 48.441406 L 20.328125 48.484375 C 20.796875 48.308594 21.253906 48.105469 21.707031 47.886719 L 22.042969 47.71875 L 22.375 47.539062 L 22.703125 47.351562 L 23.023438 47.15625 C 23.132812 47.089844 23.238281 47.023438 23.347656 46.957031 L 23.667969 46.757812 C 23.773438 46.683594 23.875 46.613281 23.976562 46.539062 C 24.078125 46.460938 24.171875 46.378906 24.269531 46.296875 C 24.363281 46.210938 24.453125 46.125 24.542969 46.035156 C 24.632812 45.941406 24.722656 45.851562 24.804688 45.757812 C 24.890625 45.664062 24.96875 45.5625 25.046875 45.464844 C 25.125 45.363281 25.199219 45.257812 25.269531 45.148438 L 25.238281 45.117188 C 25.121094 45.175781 25.015625 45.242188 24.910156 45.3125 " fill-opacity="1" fill-rule="nonzero"/><path fill="#ffffff" d="M 21.753906 46.574219 L 21.773438 46.613281 C 22.058594 46.519531 22.339844 46.40625 22.621094 46.289062 C 22.757812 46.226562 22.894531 46.160156 23.03125 46.09375 C 23.167969 46.027344 23.300781 45.953125 23.433594 45.882812 C 23.566406 45.804688 23.703125 45.738281 23.839844 45.664062 C 23.972656 45.589844 24.097656 45.5 24.210938 45.398438 C 24.4375 45.191406 24.648438 44.960938 24.792969 44.671875 L 24.765625 44.636719 C 24.457031 44.734375 24.195312 44.878906 23.941406 45.03125 C 23.816406 45.109375 23.699219 45.195312 23.585938 45.292969 C 23.472656 45.390625 23.359375 45.484375 23.242188 45.574219 C 23.121094 45.664062 23 45.75 22.878906 45.835938 C 22.757812 45.921875 22.636719 46.003906 22.511719 46.089844 C 22.265625 46.257812 22.011719 46.414062 21.753906 46.574219 " fill-opacity="1" fill-rule="nonzero"/><path fill="#ffffff" d="M 4.9375 17.648438 L 5.714844 17.40625 L 6.484375 17.160156 C 6.742188 17.078125 7.003906 17.003906 7.261719 16.925781 C 7.523438 16.847656 7.777344 16.753906 8.027344 16.652344 C 8.273438 16.546875 8.519531 16.433594 8.765625 16.3125 C 9.007812 16.191406 9.25 16.058594 9.480469 15.90625 L 9.464844 15.863281 C 9.191406 15.894531 8.921875 15.949219 8.65625 16.011719 C 8.394531 16.074219 8.132812 16.144531 7.871094 16.222656 C 7.613281 16.304688 7.359375 16.394531 7.113281 16.5 C 6.863281 16.609375 6.613281 16.714844 6.363281 16.816406 L 5.613281 17.121094 L 4.863281 17.433594 C 4.363281 17.644531 3.863281 17.851562 3.367188 18.070312 L 3.382812 18.113281 C 3.902344 17.964844 4.421875 17.800781 4.9375 17.648438 " fill-opacity="1" fill-rule="nonzero"/><path fill="#ffffff" d="M 8.332031 16.851562 C 8.132812 16.933594 7.933594 17.011719 7.730469 17.085938 C 7.332031 17.246094 6.929688 17.390625 6.523438 17.539062 L 6.535156 17.582031 C 6.960938 17.503906 7.378906 17.40625 7.800781 17.304688 C 8.007812 17.25 8.21875 17.195312 8.425781 17.136719 C 8.636719 17.078125 8.84375 17.015625 9.050781 16.953125 C 9.257812 16.890625 9.464844 16.832031 9.671875 16.769531 C 9.878906 16.703125 10.082031 16.625 10.277344 16.535156 C 10.472656 16.441406 10.667969 16.335938 10.851562 16.222656 C 11.039062 16.109375 11.222656 15.984375 11.390625 15.835938 L 11.375 15.796875 C 11.152344 15.824219 10.9375 15.871094 10.730469 15.929688 C 10.519531 15.980469 10.3125 16.042969 10.109375 16.109375 C 9.90625 16.179688 9.710938 16.257812 9.515625 16.347656 C 9.320312 16.4375 9.125 16.527344 8.929688 16.609375 C 8.730469 16.691406 8.53125 16.773438 8.332031 16.851562 " fill-opacity="1" fill-rule="nonzero"/><path fill="#ffffff" d="M 3.230469 21.300781 C 3.402344 21.167969 3.582031 21.042969 3.773438 20.929688 C 3.964844 20.816406 4.171875 20.714844 4.402344 20.605469 C 4.15625 20.527344 3.890625 20.535156 3.640625 20.597656 C 3.390625 20.664062 3.15625 20.78125 2.953125 20.945312 C 2.75 21.105469 2.578125 21.308594 2.457031 21.539062 C 2.339844 21.769531 2.265625 22.027344 2.285156 22.285156 C 2.445312 22.082031 2.589844 21.90625 2.746094 21.746094 C 2.902344 21.582031 3.0625 21.4375 3.230469 21.300781 " fill-opacity="1" fill-rule="nonzero"/><path fill="#ffffff" d="M 2.695312 20.464844 C 2.796875 20.390625 2.902344 20.316406 3.007812 20.238281 C 3.113281 20.15625 3.222656 20.070312 3.34375 19.949219 C 3.1875 19.882812 3.027344 19.878906 2.871094 19.90625 C 2.71875 19.9375 2.570312 20 2.441406 20.085938 C 2.3125 20.175781 2.199219 20.289062 2.117188 20.421875 C 2.035156 20.558594 1.976562 20.710938 1.980469 20.882812 C 2.132812 20.8125 2.253906 20.742188 2.367188 20.671875 C 2.484375 20.601562 2.589844 20.535156 2.695312 20.464844 " fill-opacity="1" fill-rule="nonzero"/><path fill="#ffffff" d="M 12.167969 22.027344 C 11.96875 21.894531 11.75 21.796875 11.507812 21.769531 C 11.65625 21.960938 11.796875 22.125 11.929688 22.292969 C 12.066406 22.457031 12.191406 22.621094 12.3125 22.789062 C 12.433594 22.957031 12.546875 23.128906 12.664062 23.308594 C 12.777344 23.488281 12.890625 23.675781 13.023438 23.875 C 13.074219 23.636719 13.050781 23.394531 12.988281 23.164062 C 12.921875 22.933594 12.816406 22.714844 12.675781 22.523438 C 12.539062 22.328125 12.363281 22.160156 12.167969 22.027344 " fill-opacity="1" fill-rule="nonzero"/><path fill="#ffffff" d="M 8.898438 28.746094 C 8.953125 28.578125 9.214844 28.648438 9.160156 28.816406 C 9.132812 28.902344 9.101562 28.988281 9.113281 29.078125 C 9.117188 29.117188 9.148438 29.222656 9.199219 29.226562 C 9.246094 29.234375 9.328125 29.109375 9.351562 29.074219 C 9.394531 29.007812 9.425781 28.9375 9.449219 28.863281 C 9.503906 28.695312 9.765625 28.769531 9.710938 28.933594 C 9.636719 29.160156 9.425781 29.574219 9.125 29.492188 C 8.804688 29.40625 8.816406 28.996094 8.898438 28.746094 Z M 6.382812 28.132812 C 6.316406 28.253906 6.1875 28.332031 6.050781 28.304688 C 5.734375 28.238281 5.625 27.765625 5.621094 27.492188 C 5.621094 27.3125 5.890625 27.316406 5.894531 27.492188 C 5.894531 27.652344 5.9375 27.878906 6.054688 28 C 6.203125 28.144531 6.148438 27.703125 6.140625 27.636719 C 6.117188 27.464844 6.390625 27.464844 6.410156 27.636719 C 6.433594 27.796875 6.460938 27.984375 6.382812 28.132812 Z M 6.203125 24.558594 C 6.152344 24.5625 6.101562 24.566406 6.050781 24.570312 C 5.503906 24.628906 5.039062 24.855469 4.855469 25.375 C 4.71875 25.777344 4.71875 26.203125 4.792969 26.632812 C 4.796875 26.644531 4.796875 26.65625 4.796875 26.667969 C 4.941406 27.4375 5.3125 28.21875 5.546875 28.90625 C 5.710938 28.980469 5.863281 29.066406 6 29.128906 C 6.570312 29.375 7.140625 29.617188 7.710938 29.851562 C 8.386719 30.027344 9.082031 30.113281 9.75 30.300781 C 9.847656 30.328125 9.941406 30.367188 10.03125 30.410156 C 10.464844 29.667969 10.710938 28.847656 10.660156 27.996094 C 10.65625 27.976562 10.652344 27.957031 10.65625 27.9375 C 10.644531 27.792969 10.628906 27.648438 10.597656 27.503906 C 10.589844 27.449219 10.574219 27.390625 10.558594 27.335938 C 10.078125 27.695312 9.125 27.191406 8.730469 26.878906 C 8.148438 26.417969 7.753906 25.578125 8.027344 24.855469 C 7.53125 24.683594 6.832031 24.527344 6.203125 24.558594 " fill-opacity="1" fill-rule="nonzero"/><path fill="#ffffff" d="M 4.355469 25.40625 C 4.28125 25.558594 4.191406 25.695312 4.070312 25.8125 C 3.894531 25.972656 3.683594 26.066406 3.457031 26.097656 C 3.710938 26.425781 4.171875 26.847656 4.511719 26.609375 C 4.429688 26.121094 4.4375 25.636719 4.625 25.179688 C 4.492188 25.167969 4.4375 25.238281 4.355469 25.40625 " fill-opacity="1" fill-rule="nonzero"/><path fill="#ffffff" d="M 10.828125 27.289062 C 10.875 27.476562 10.902344 27.664062 10.921875 27.851562 C 11.429688 28.046875 12.019531 27.953125 12.382812 27.542969 C 11.832031 27.347656 11.28125 27.152344 10.730469 26.957031 C 10.765625 27.066406 10.800781 27.175781 10.828125 27.289062 " fill-opacity="1" fill-rule="nonzero"/><path fill="#86476e" d="M 24.0625 0.511719 C 23.941406 0.492188 23.828125 0.476562 23.710938 0.460938 L 23.363281 0.421875 C 23.238281 0.40625 23.117188 0.394531 22.957031 0.371094 C 22.988281 0.535156 23.101562 0.660156 23.226562 0.75 C 23.355469 0.839844 23.503906 0.894531 23.65625 0.914062 C 23.804688 0.933594 23.960938 0.917969 24.109375 0.863281 C 24.253906 0.8125 24.394531 0.714844 24.46875 0.566406 C 24.304688 0.546875 24.183594 0.527344 24.0625 0.511719 " fill-opacity="1" fill-rule="nonzero"/><path fill="#86476e" d="M 21.253906 17.289062 C 21.140625 17.175781 21.023438 17.066406 20.910156 16.953125 C 20.800781 16.84375 20.691406 16.730469 20.582031 16.621094 C 20.542969 16.582031 20.507812 16.542969 20.46875 16.503906 C 20.390625 16.425781 20.3125 16.347656 20.234375 16.265625 C 20.21875 16.363281 20.203125 16.457031 20.1875 16.550781 C 20.171875 16.640625 20.15625 16.730469 20.140625 16.820312 C 20.121094 16.933594 20.105469 17.046875 20.085938 17.160156 C 20.078125 17.191406 20.074219 17.226562 20.066406 17.261719 C 20.113281 17.308594 20.160156 17.355469 20.207031 17.402344 C 20.238281 17.433594 20.269531 17.464844 20.300781 17.5 C 20.4375 17.632812 20.578125 17.765625 20.714844 17.898438 C 20.796875 17.980469 20.878906 18.0625 20.964844 18.140625 C 21.097656 18.109375 21.226562 18.046875 21.34375 17.957031 C 21.386719 17.945312 21.417969 17.917969 21.425781 17.863281 C 21.445312 17.753906 21.464844 17.644531 21.484375 17.535156 C 21.488281 17.527344 21.488281 17.523438 21.488281 17.515625 C 21.441406 17.46875 21.390625 17.417969 21.34375 17.371094 C 21.3125 17.34375 21.285156 17.316406 21.253906 17.289062 " fill-opacity="1" fill-rule="nonzero"/><path fill="#86476e" d="M 23.082031 1.066406 C 23.007812 0.976562 22.929688 0.882812 22.855469 0.789062 C 22.796875 1.140625 22.738281 1.492188 22.675781 1.847656 C 22.753906 1.9375 22.828125 2.027344 22.90625 2.117188 C 23.179688 2.4375 23.464844 2.753906 23.753906 3.0625 C 23.832031 3.144531 23.910156 3.226562 23.984375 3.304688 C 24.042969 2.972656 24.105469 2.640625 24.160156 2.308594 C 24.085938 2.222656 24.007812 2.140625 23.933594 2.054688 C 23.640625 1.734375 23.355469 1.40625 23.082031 1.066406 " fill-opacity="1" fill-rule="nonzero"/><path fill="#86476e" d="M 22.753906 2.996094 C 22.683594 2.890625 22.609375 2.785156 22.535156 2.679688 C 22.472656 3.0625 22.40625 3.441406 22.34375 3.820312 C 22.414062 3.925781 22.488281 4.03125 22.5625 4.136719 C 22.832031 4.519531 23.097656 4.902344 23.363281 5.28125 C 23.4375 5.386719 23.511719 5.492188 23.582031 5.597656 C 23.648438 5.21875 23.714844 4.839844 23.78125 4.464844 C 23.710938 4.359375 23.636719 4.253906 23.5625 4.148438 C 23.292969 3.765625 23.023438 3.378906 22.753906 2.996094 " fill-opacity="1" fill-rule="nonzero"/><path fill="#86476e" d="M 22.378906 5.222656 C 22.304688 5.113281 22.234375 5 22.160156 4.886719 C 22.09375 5.285156 22.027344 5.679688 21.960938 6.078125 C 22.03125 6.191406 22.105469 6.304688 22.175781 6.414062 C 22.4375 6.816406 22.695312 7.21875 22.953125 7.621094 C 23.023438 7.734375 23.097656 7.84375 23.167969 7.957031 C 23.238281 7.5625 23.308594 7.167969 23.375 6.773438 C 23.304688 6.664062 23.234375 6.550781 23.160156 6.441406 C 22.898438 6.035156 22.640625 5.628906 22.378906 5.222656 " fill-opacity="1" fill-rule="nonzero"/><path fill="#86476e" d="M 21.980469 7.574219 C 21.910156 7.464844 21.835938 7.351562 21.761719 7.242188 C 21.695312 7.636719 21.628906 8.03125 21.5625 8.425781 C 21.636719 8.539062 21.707031 8.652344 21.78125 8.761719 C 22.035156 9.15625 22.289062 9.550781 22.546875 9.941406 C 22.617188 10.054688 22.691406 10.164062 22.761719 10.273438 C 22.832031 9.882812 22.898438 9.492188 22.96875 9.097656 C 22.898438 8.988281 22.824219 8.875 22.753906 8.765625 C 22.496094 8.367188 22.238281 7.972656 21.980469 7.574219 " fill-opacity="1" fill-rule="nonzero"/><path fill="#86476e" d="M 21.515625 10.320312 C 21.441406 10.226562 21.367188 10.128906 21.292969 10.03125 C 21.230469 10.394531 21.167969 10.753906 21.105469 11.117188 C 21.183594 11.214844 21.257812 11.3125 21.332031 11.40625 C 21.589844 11.738281 21.851562 12.070312 22.113281 12.402344 C 22.1875 12.496094 22.261719 12.59375 22.335938 12.6875 C 22.402344 12.328125 22.464844 11.972656 22.527344 11.613281 C 22.453125 11.519531 22.375 11.425781 22.300781 11.332031 C 22.039062 10.996094 21.777344 10.660156 21.515625 10.320312 " fill-opacity="1" fill-rule="nonzero"/><path fill="#86476e" d="M 21.144531 12.523438 C 21.066406 12.4375 20.988281 12.355469 20.914062 12.269531 C 20.855469 12.609375 20.796875 12.949219 20.738281 13.289062 C 20.816406 13.371094 20.894531 13.453125 20.972656 13.539062 C 21.234375 13.824219 21.5 14.109375 21.761719 14.394531 C 21.839844 14.480469 21.917969 14.5625 21.992188 14.644531 C 22.050781 14.308594 22.113281 13.972656 22.171875 13.636719 C 22.09375 13.550781 22.015625 13.46875 21.941406 13.386719 C 21.675781 13.097656 21.410156 12.808594 21.144531 12.523438 " fill-opacity="1" fill-rule="nonzero"/><path fill="#86476e" d="M 20.816406 14.464844 C 20.738281 14.371094 20.664062 14.277344 20.589844 14.183594 C 20.527344 14.535156 20.46875 14.890625 20.410156 15.242188 C 20.484375 15.332031 20.5625 15.421875 20.636719 15.511719 C 20.890625 15.808594 21.148438 16.101562 21.414062 16.386719 C 21.488281 16.472656 21.566406 16.554688 21.644531 16.636719 C 21.703125 16.300781 21.761719 15.964844 21.820312 15.628906 C 21.742188 15.542969 21.667969 15.460938 21.589844 15.375 C 21.328125 15.074219 21.066406 14.773438 20.816406 14.464844 " fill-opacity="1" fill-rule="nonzero"/></svg>